<?xml version="1.0" encoding="UTF-8" standalone="no"?>
<!-- Created with Inkscape (http://www.inkscape.org/) -->

<svg
   xmlns:dc="http://purl.org/dc/elements/1.1/"
   xmlns:cc="http://creativecommons.org/ns#"
   xmlns:rdf="http://www.w3.org/1999/02/22-rdf-syntax-ns#"
   xmlns:svg="http://www.w3.org/2000/svg"
   xmlns="http://www.w3.org/2000/svg"
   xmlns:xlink="http://www.w3.org/1999/xlink"
   xmlns:sodipodi="http://sodipodi.sourceforge.net/DTD/sodipodi-0.dtd"
   xmlns:inkscape="http://www.inkscape.org/namespaces/inkscape"
   width="18.998676mm"
   height="22.579491mm"
   viewBox="0 0 18.998676 22.579491"
   version="1.1"
   id="svg8"
   inkscape:version="0.92.3 (2405546, 2018-03-11)"
   sodipodi:docname="lizard.svg">
  <defs
     id="defs2" />
  <sodipodi:namedview
     id="base"
     pagecolor="#ffffff"
     bordercolor="#666666"
     borderopacity="1.0"
     inkscape:pageopacity="0.0"
     inkscape:pageshadow="2"
     inkscape:zoom="1.979899"
     inkscape:cx="27.763312"
     inkscape:cy="85.444093"
     inkscape:document-units="mm"
     inkscape:current-layer="layer1"
     showgrid="false"
     fit-margin-top="0"
     fit-margin-left="0"
     fit-margin-right="0"
     fit-margin-bottom="0"
     inkscape:window-width="1366"
     inkscape:window-height="745"
     inkscape:window-x="-8"
     inkscape:window-y="-8"
     inkscape:window-maximized="1" />
  <metadata
     id="metadata5">
    <rdf:RDF>
      <cc:Work
         rdf:about="">
        <dc:format>image/svg+xml</dc:format>
        <dc:type
           rdf:resource="http://purl.org/dc/dcmitype/StillImage" />
        <dc:title></dc:title>
      </cc:Work>
    </rdf:RDF>
  </metadata>
  <g
     inkscape:label="Layer 1"
     inkscape:groupmode="layer"
     id="layer1"
     transform="translate(-27.294986,-148.86093)">
    <image
       sodipodi:absref="E:\strony\RPSLS\img\lizard — kopia.png"
       y="139.52928"
       x="17.692856"
       id="image823"
       xlink:href="file:///E:/strony/RPSLS/img/lizard%20%E2%80%94%20kopia.png"
       preserveAspectRatio="none"
       height="36.247917"
       width="36.247917" />
    <path
       style="fill:#a6f331;stroke-width:0.26458335"
       d="m 35.73312,171.20555 c -0.543597,-0.655 -0.817293,-4.48652 -0.427755,-5.98823 0.452087,-1.74284 0.451918,-1.74262 1.813249,-2.4225 0.636637,-0.31795 1.913862,-1.28024 2.838278,-2.13841 0.924416,-0.85818 2.009722,-1.63226 2.411792,-1.72019 1.313353,-0.28722 1.199466,-2.27783 -0.149693,-2.61644 -0.340057,-0.0854 -1.572003,0.1961 -2.881603,0.65833 -2.805195,0.99011 -3.627744,1.01761 -4.444157,0.14858 -0.884408,-0.94141 -0.44844,-1.78529 1.21517,-2.35214 1.675275,-0.57082 3.422944,-0.53234 4.830536,0.10637 1.604935,0.72826 3.323089,0.70002 3.857812,-0.0634 0.570048,-0.81386 0.348882,-0.96761 -3.549051,-2.46733 l -3.300367,-1.2698 -1.589858,0.55696 c -1.789128,0.62678 -2.356928,0.56176 -0.794667,-0.091 1.940205,-0.81067 2.535257,-0.76891 5.53086,0.38817 1.549944,0.59868 2.972565,1.08851 3.161378,1.08851 0.188814,0 0.556257,0.23532 0.816541,0.52293 0.537215,0.59361 0.931688,0.4805 0.931688,-0.26717 0,-0.29546 -0.330962,-0.6779 -0.79375,-0.91722 -0.436563,-0.22575 -0.79375,-0.34138 -0.79375,-0.25695 0,0.0844 -0.803672,-0.26245 -1.785938,-0.77084 -2.864801,-1.48275 -5.15382,-2.31789 -5.867509,-2.14075 -0.353094,0.0876 -2.08473,0.87564 -3.848082,1.75112 l -3.206094,1.59177 -0.603463,3.08782 c -0.331904,1.69831 -0.726714,3.65843 -0.877355,4.35583 -0.150641,0.6974 -0.196472,1.88803 -0.101847,2.64583 0.546642,4.37782 0.620813,5.85248 0.2995,5.95461 -0.24677,0.0784 -0.996942,-2.39399 -0.89756,-2.95818 0.02865,-0.16262 -0.04059,-1.2656 -0.153854,-2.45107 -0.127711,-1.33666 -0.09828,-2.69345 0.07748,-3.57187 1.03283,-5.16202 1.415356,-6.74522 1.696757,-7.02254 0.505473,-0.49815 6.70058,-3.51516 7.57859,-3.69076 0.821861,-0.16437 2.766469,0.49129 5.969586,2.01276 0.873125,0.41473 2.033985,0.94146 2.579688,1.1705 1.321673,0.55475 1.357368,1.52001 0.101333,2.74012 -0.760813,0.73905 -1.07242,0.85989 -2.217248,0.85989 -0.761983,0 -1.825616,-0.22397 -2.4854,-0.52335 -1.406617,-0.63827 -2.881412,-0.65511 -4.458326,-0.0509 -1.32507,0.50771 -1.621359,1.13144 -0.910564,1.91686 0.61864,0.68359 0.899622,0.66003 3.824775,-0.32072 2.92126,-0.97944 3.729942,-0.91639 4.38044,0.34154 0.545058,1.05403 0.194582,1.93657 -0.858023,2.1606 -0.412733,0.0878 -1.4648,0.82345 -2.337925,1.63469 -0.873125,0.81123 -2.01694,1.70252 -2.541812,1.98064 -1.671976,0.88595 -2.305687,3.85568 -1.553571,7.28044 0.24945,1.13586 0.0017,1.70485 -0.486228,1.11689 z"
       id="path826"
       inkscape:connector-curvature="0" />
  </g>
</svg>
