<?xml version="1.0" encoding="UTF-8" standalone="no"?>
<!-- Created with Inkscape (http://www.inkscape.org/) -->

<svg
   xmlns:dc="http://purl.org/dc/elements/1.1/"
   xmlns:cc="http://creativecommons.org/ns#"
   xmlns:rdf="http://www.w3.org/1999/02/22-rdf-syntax-ns#"
   xmlns:svg="http://www.w3.org/2000/svg"
   xmlns="http://www.w3.org/2000/svg"
   xmlns:xlink="http://www.w3.org/1999/xlink"
   xmlns:sodipodi="http://sodipodi.sourceforge.net/DTD/sodipodi-0.dtd"
   xmlns:inkscape="http://www.inkscape.org/namespaces/inkscape"
   width="23.970833mm"
   height="18.95496mm"
   viewBox="0 0 23.970833 18.95496"
   version="1.1"
   id="svg8"
   inkscape:version="0.92.3 (2405546, 2018-03-11)"
   sodipodi:docname="paper.svg">
  <defs
     id="defs2" />
  <sodipodi:namedview
     id="base"
     pagecolor="#ffffff"
     bordercolor="#666666"
     borderopacity="1.0"
     inkscape:pageopacity="0.0"
     inkscape:pageshadow="2"
     inkscape:zoom="1.979899"
     inkscape:cx="-82.297705"
     inkscape:cy="22.486406"
     inkscape:document-units="mm"
     inkscape:current-layer="layer1"
     showgrid="false"
     fit-margin-top="0"
     fit-margin-left="0"
     fit-margin-right="0"
     fit-margin-bottom="0"
     inkscape:window-width="1366"
     inkscape:window-height="745"
     inkscape:window-x="-8"
     inkscape:window-y="-8"
     inkscape:window-maximized="1" />
  <metadata
     id="metadata5">
    <rdf:RDF>
      <cc:Work
         rdf:about="">
        <dc:format>image/svg+xml</dc:format>
        <dc:type
           rdf:resource="http://purl.org/dc/dcmitype/StillImage" />
        <dc:title></dc:title>
      </cc:Work>
    </rdf:RDF>
  </metadata>
  <g
     inkscape:label="Layer 1"
     inkscape:groupmode="layer"
     id="layer1"
     transform="translate(-16.447881,-135.8279)">
    <image
       sodipodi:absref="E:\strony\RPSLS\img\paper — kopia.png"
       y="129.37303"
       x="11.146094"
       id="image823"
       xlink:href="file:///E:/strony/RPSLS/img/paper%20%E2%80%94%20kopia.png"
       preserveAspectRatio="none"
       height="36.247917"
       width="36.512501" />
    <path
       style="fill:#f3efe0;stroke-width:0.26458335"
       d="m 26.954949,154.35711 c -0.400183,-0.2171 -0.727605,-0.48981 -0.727605,-0.60601 0,-0.11621 -0.565546,-0.61182 -1.25677,-1.10136 -2.092288,-1.4818 -3.165491,-2.71535 -4.280623,-4.92016 -0.881267,-1.74242 -1.334693,-2.30497 -2.647164,-3.28424 -0.87106,-0.64993 -1.588534,-1.27098 -1.594386,-1.38012 -0.02377,-0.44328 0.770315,-0.14922 1.786239,0.66146 1.542349,1.23075 2.5744,2.63759 2.969101,4.04732 0.382978,1.36786 1.97317,3.19259 4.031416,4.62599 0.691224,0.48139 1.256771,0.97107 1.256771,1.08818 0,0.23173 1.403309,1.02028 1.815688,1.02028 0.139956,0 0.3373,-0.49029 0.438542,-1.08954 0.182392,-1.07957 0.1664,-1.10733 -1.748372,-3.03497 -1.062846,-1.06999 -1.866557,-2.01132 -1.786023,-2.09186 0.08053,-0.0805 0.297032,0.0351 0.481108,0.25685 0.184076,0.2218 0.591075,0.40327 0.904443,0.40327 0.313367,0 1.409981,0.52288 2.436918,1.16196 3.060377,1.90453 5.087621,2.86694 6.335186,3.00756 0.930834,0.10492 1.176677,0.0493 1.176677,-0.26626 0,-0.21939 -0.178594,-0.54711 -0.396875,-0.72826 -0.218282,-0.18116 -0.396875,-0.47895 -0.396875,-0.66176 0,-0.18281 -0.35324,-0.47869 -0.784978,-0.65753 -0.431738,-0.17883 -0.930629,-0.50064 -1.108648,-0.71514 -0.17802,-0.2145 -1.027453,-0.74527 -1.88763,-1.17949 -0.860177,-0.43421 -1.504218,-0.84922 -1.431201,-0.92224 0.158753,-0.15875 2.782749,1.12726 3.391683,1.66226 0.807578,0.70952 3.39933,2.1653 4.147451,2.32962 0.548169,0.1204 0.87108,0.0285 1.207968,-0.34375 0.711862,-0.7866 0.330412,-1.71075 -0.973005,-2.35735 -4.048378,-2.00833 -6.628044,-3.49516 -6.421859,-3.70135 0.07212,-0.0721 0.523687,0.11679 1.003485,0.41979 0.479797,0.303 1.586734,0.90928 2.459859,1.34729 0.873125,0.43801 2.002361,1.03777 2.509414,1.3328 0.910825,0.52998 1.876301,0.69273 2.198436,0.37059 0.427374,-0.42737 -0.682233,-1.6603 -2.115764,-2.3509 -0.843564,-0.40639 -2.069534,-1.1125 -2.724378,-1.56913 -0.654844,-0.45664 -1.518047,-0.9944 -1.918229,-1.19502 -0.400183,-0.20063 -0.727604,-0.47343 -0.727604,-0.60623 0,-0.24699 1.103149,0.36185 3.117674,1.72067 0.623315,0.42043 1.680265,1.00637 2.348779,1.30209 0.996444,0.44077 1.256358,0.47315 1.442336,0.17966 0.124772,-0.19691 0.228682,-0.43676 0.23091,-0.53301 0.0039,-0.16641 -3.15739,-2.6259 -4.921015,-3.82861 -2.827577,-1.92829 -4.704344,-2.69395 -8.96556,-3.65766 -2.322443,-0.52524 -4.924401,-2.07224 -4.387839,-2.60881 0.193492,-0.19349 0.632322,-0.0225 1.450644,0.56515 0.645278,0.4634 2.224969,1.19594 3.510423,1.62785 4.843255,1.62735 5.500262,1.87963 6.650124,2.55349 1.555528,0.9116 2.421288,1.50837 4.907538,3.38278 1.918695,1.44652 2.062149,1.62093 1.919576,2.3338 -0.09287,0.46434 0.01005,1.08787 0.259053,1.56938 0.461212,0.89189 0.339638,1.54492 -0.287607,1.54492 -0.327803,0 -0.357206,0.10703 -0.140594,0.51178 0.418232,0.78147 0.329094,1.47292 -0.258424,2.00461 -0.449107,0.40644 -0.707594,0.44163 -1.653646,0.22511 l -1.121331,-0.25663 v 0.80809 c 0,0.77823 -0.04038,0.80635 -1.093003,0.76112 -1.126883,-0.0484 -3.854045,-1.28128 -6.323848,-2.85878 -1.676522,-1.07083 -2.505024,-1.51591 -2.505024,-1.34573 0,0.073 0.535781,0.73603 1.190625,1.47335 0.912573,1.02751 1.190625,1.54973 1.190625,2.23615 0,1.77292 -0.635371,2.15618 -2.182812,1.31668 z"
       id="path826"
       inkscape:connector-curvature="0" />
  </g>
</svg>
