<?xml version="1.0" encoding="UTF-8" standalone="no"?>
<!-- Created with Inkscape (http://www.inkscape.org/) -->

<svg
   xmlns:dc="http://purl.org/dc/elements/1.1/"
   xmlns:cc="http://creativecommons.org/ns#"
   xmlns:rdf="http://www.w3.org/1999/02/22-rdf-syntax-ns#"
   xmlns:svg="http://www.w3.org/2000/svg"
   xmlns="http://www.w3.org/2000/svg"
   xmlns:xlink="http://www.w3.org/1999/xlink"
   xmlns:sodipodi="http://sodipodi.sourceforge.net/DTD/sodipodi-0.dtd"
   xmlns:inkscape="http://www.inkscape.org/namespaces/inkscape"
   width="21.205584mm"
   height="20.199469mm"
   viewBox="0 0 21.205584 20.199469"
   version="1.1"
   id="svg8"
   inkscape:version="0.92.3 (2405546, 2018-03-11)"
   sodipodi:docname="rock.svg">
  <defs
     id="defs2" />
  <sodipodi:namedview
     id="base"
     pagecolor="#ffffff"
     bordercolor="#666666"
     borderopacity="1.0"
     inkscape:pageopacity="0.0"
     inkscape:pageshadow="2"
     inkscape:zoom="0.35"
     inkscape:cx="-426.08364"
     inkscape:cy="68.585878"
     inkscape:document-units="mm"
     inkscape:current-layer="layer1"
     showgrid="false"
     fit-margin-top="0"
     fit-margin-left="0"
     fit-margin-right="0"
     fit-margin-bottom="0"
     inkscape:window-width="1366"
     inkscape:window-height="745"
     inkscape:window-x="-8"
     inkscape:window-y="-8"
     inkscape:window-maximized="1" />
  <metadata
     id="metadata5">
    <rdf:RDF>
      <cc:Work
         rdf:about="">
        <dc:format>image/svg+xml</dc:format>
        <dc:type
           rdf:resource="http://purl.org/dc/dcmitype/StillImage" />
        <dc:title></dc:title>
      </cc:Work>
    </rdf:RDF>
  </metadata>
  <g
     inkscape:label="Layer 1"
     inkscape:groupmode="layer"
     id="layer1"
     transform="translate(-59.817963,-146.78054)">
    <image
       sodipodi:absref="E:\strony\RPSLS\img\rock — kopia.png"
       y="140.04538"
       x="50.176342"
       id="image823"
       xlink:href="file:///E:/strony/RPSLS/img/rock%20%E2%80%94%20kopia.png"
       preserveAspectRatio="none"
       height="35.71875"
       width="35.71875" />
    <path
       style="fill:#a09c83;stroke-width:0.26458332"
       d="m 67.26358,166.77228 c -1.53764,-0.29626 -1.753289,-0.76567 -1.697704,-3.69547 0.02636,-1.38942 0.13588,-2.82388 0.243376,-3.18768 0.107496,-0.3638 0.140208,0.73132 0.07269,2.43361 -0.115056,2.90094 -0.08708,3.13075 0.446091,3.66392 0.419709,0.41971 0.752816,0.52469 1.270555,0.40045 0.385941,-0.0926 0.955412,-0.21129 1.265492,-0.26372 0.839686,-0.14198 1.765235,-0.82318 2.70163,-1.9884 0.977334,-1.21616 1.130754,-2.76444 0.367348,-3.70721 l -0.468281,-0.5783 -0.722344,0.56819 c -0.844265,0.6641 -0.889743,0.95843 -0.259322,1.6783 0.440972,0.50354 0.440972,0.52068 0,0.35987 -0.681158,-0.2484 -1.18769,0.0325 -1.370226,0.75973 -0.08867,0.35327 -0.271929,0.64231 -0.407252,0.64231 -0.135323,0 -0.07352,-0.41289 0.137333,-0.91754 0.210856,-0.50465 0.383374,-1.45715 0.383374,-2.11667 0,-0.65952 0.09015,-1.19912 0.200344,-1.19912 0.110189,0 0.176591,0.56554 0.147559,1.25677 -0.0399,0.94988 -0.0081,1.06977 0.130385,0.49098 0.217682,-0.91007 1.416639,-1.88946 2.026541,-1.65542 0.7241,0.27787 1.255439,1.91123 0.964498,2.96493 -0.361958,1.31091 -1.701802,2.88374 -3.006855,3.52973 -1.810877,0.89637 -0.232027,0.70188 2.006722,-0.2472 2.675272,-1.13414 2.601936,-1.07745 3.537625,-2.73449 0.729239,-1.29144 1.414556,-4.1487 1.194707,-4.98105 -0.05368,-0.20323 3.146442,-3.36629 3.744159,-3.70079 0.225179,-0.12602 0.499833,-0.0546 0.695167,0.18076 0.265073,0.3194 0.211132,0.4331 -0.301157,0.63479 -0.343239,0.13514 -1.315252,0.95088 -2.160029,1.81276 -1.442641,1.47184 -1.545445,1.66214 -1.692077,3.13212 -0.220352,2.20903 -1.679939,4.74835 -2.975001,5.17576 -0.513523,0.16948 -1.530573,0.5861 -2.260112,0.92583 -1.352823,0.62997 -2.371393,0.7175 -4.215238,0.36225 z m -4.068815,-1.85439 c -0.247893,-0.43565 -0.640621,-0.79283 -0.872728,-0.79375 -0.653964,-0.003 -1.297778,-0.88444 -1.297778,-1.77759 0,-0.56317 -0.148059,-0.84692 -0.488345,-0.93591 -0.585568,-0.15313 -0.80738,-1.54386 -0.685762,-4.29964 0.137586,-3.11757 0.34079,-3.96702 1.118224,-4.67446 1.369714,-1.2464 4.792756,-2.26075 8.521957,-2.5253 l 1.983783,-0.14073 1.518938,-1.6112 c 1.08278,-1.14855 1.600568,-1.52957 1.803216,-1.32692 0.202649,0.20265 -0.163131,0.75446 -1.273839,1.9217 -1.539497,1.61785 -1.578432,1.63905 -3.257833,1.77392 -0.934843,0.0751 -2.056902,0.23968 -2.493464,0.3658 -0.436563,0.12612 -1.485799,0.36618 -2.331636,0.53347 -1.900176,0.3758 -3.626121,1.12148 -4.287626,1.85244 -0.807574,0.89236 -1.303448,5.97068 -0.748717,7.66774 0.254033,0.77715 0.884424,-0.57631 0.916991,-1.9688 0.01722,-0.73617 0.131771,-1.69568 0.254563,-2.13224 0.17596,-0.62559 0.199869,-0.51349 0.112854,0.52917 -0.485729,5.82027 -0.489911,5.52479 0.08557,6.04519 0.297383,0.26891 0.654875,0.41837 0.794426,0.33212 0.139551,-0.0862 0.393792,-1.19923 0.564981,-2.47331 0.171189,-1.27408 0.42188,-2.61416 0.557092,-2.97796 0.272395,-0.73291 0.293388,-0.96749 -0.312643,3.49357 -0.280882,2.06761 -0.265983,2.37449 0.145797,3.00294 0.341955,0.52189 0.620997,0.66896 1.096728,0.57801 0.350942,-0.0671 0.638077,-0.0194 0.638077,0.10592 0,0.12534 -0.362725,0.22789 -0.806056,0.22789 -0.61848,0 -0.910941,-0.18432 -1.256771,-0.79207 z"
       id="path826"
       inkscape:connector-curvature="0" />
  </g>
</svg>
