<?xml version="1.0" encoding="UTF-8" standalone="no"?>
<!-- Created with Inkscape (http://www.inkscape.org/) -->

<svg
   xmlns:dc="http://purl.org/dc/elements/1.1/"
   xmlns:cc="http://creativecommons.org/ns#"
   xmlns:rdf="http://www.w3.org/1999/02/22-rdf-syntax-ns#"
   xmlns:svg="http://www.w3.org/2000/svg"
   xmlns="http://www.w3.org/2000/svg"
   xmlns:xlink="http://www.w3.org/1999/xlink"
   xmlns:sodipodi="http://sodipodi.sourceforge.net/DTD/sodipodi-0.dtd"
   xmlns:inkscape="http://www.inkscape.org/namespaces/inkscape"
   width="192.05779mm"
   height="34.079624mm"
   viewBox="0 0 192.05779 34.079624"
   version="1.1"
   id="svg8"
   inkscape:version="0.92.3 (2405546, 2018-03-11)"
   sodipodi:docname="rpsls.svg">
  <defs
     id="defs2" />
  <sodipodi:namedview
     id="base"
     pagecolor="#ffffff"
     bordercolor="#666666"
     borderopacity="1.0"
     inkscape:pageopacity="0.0"
     inkscape:pageshadow="2"
     inkscape:zoom="0.35"
     inkscape:cx="-239.06389"
     inkscape:cy="115.23812"
     inkscape:document-units="mm"
     inkscape:current-layer="layer1"
     showgrid="false"
     fit-margin-top="0"
     fit-margin-left="0"
     fit-margin-right="0"
     fit-margin-bottom="0"
     inkscape:window-width="1366"
     inkscape:window-height="745"
     inkscape:window-x="-8"
     inkscape:window-y="-8"
     inkscape:window-maximized="1" />
  <metadata
     id="metadata5">
    <rdf:RDF>
      <cc:Work
         rdf:about="">
        <dc:format>image/svg+xml</dc:format>
        <dc:type
           rdf:resource="http://purl.org/dc/dcmitype/StillImage" />
        <dc:title></dc:title>
      </cc:Work>
    </rdf:RDF>
  </metadata>
  <g
     inkscape:label="Layer 1"
     inkscape:groupmode="layer"
     id="layer1"
     transform="translate(-10.335653,-145.2438)">
    <image
       sodipodi:absref="E:\strony\RPSLS\img\rpsls.png"
       y="140.51785"
       x="-0.75595236"
       id="image823"
       xlink:href="file:///E:/strony/RPSLS/img/rpsls.png"
       preserveAspectRatio="none"
       height="42.333332"
       width="211.66667" />
    <g
       id="g826">
      <path
         style="fill:#f3efe0;stroke-width:0.35277778"
         d="m 148.18107,178.87231 c -0.7248,-0.87332 -1.08973,-5.98202 -0.57034,-7.9843 0.60278,-2.32378 0.60256,-2.32348 2.41766,-3.22999 0.84885,-0.42394 2.55182,-1.70699 3.78438,-2.85122 1.23255,-1.14424 2.67963,-2.17635 3.21572,-2.29359 1.75114,-0.38296 1.59928,-3.0371 -0.19959,-3.48859 -0.45341,-0.1138 -2.09601,0.26147 -3.84214,0.87778 -3.74026,1.32015 -4.83699,1.35681 -5.92554,0.19811 -1.17921,-1.25522 -0.59792,-2.38039 1.62022,-3.13619 2.2337,-0.76109 4.56393,-0.70978 6.44072,0.14183 2.13991,0.97101 4.43078,0.93336 5.14375,-0.0845 0.76006,-1.08515 0.46517,-1.29016 -4.73207,-3.28978 l -4.40049,-1.69307 -2.11981,0.74262 c -2.38551,0.8357 -3.14257,0.74901 -1.05956,-0.12133 2.58694,-1.0809 3.38035,-1.02521 7.37448,0.51756 2.06659,0.79824 3.96342,1.45134 4.21517,1.45134 0.25176,0 0.74168,0.31376 1.08873,0.69724 0.71628,0.79149 1.24225,0.64067 1.24225,-0.35622 0,-0.39395 -0.44129,-0.90387 -1.05834,-1.22296 -0.58208,-0.30101 -1.05833,-0.45518 -1.05833,-0.3426 0,0.11257 -1.07156,-0.34993 -2.38125,-1.02779 -3.81974,-1.977 -6.87176,-3.09052 -7.82335,-2.85434 -0.47079,0.11686 -2.77964,1.16753 -5.13077,2.33483 l -4.27479,2.12236 -0.80462,4.1171 c -0.44254,2.26441 -0.96896,4.8779 -1.16981,5.80777 -0.20085,0.92986 -0.26196,2.51736 -0.13579,3.52778 0.72885,5.83708 0.82775,7.80329 0.39933,7.93946 -0.32903,0.10458 -1.32926,-3.19197 -1.19675,-3.94423 0.0382,-0.21683 -0.0541,-1.68747 -0.20514,-3.26809 -0.17028,-1.78221 -0.13104,-3.59127 0.1033,-4.7625 1.37711,-6.88269 1.88715,-8.99362 2.26235,-9.36338 0.67396,-0.6642 8.9341,-4.68688 10.10478,-4.92101 1.09582,-0.21916 3.68863,0.65505 7.95945,2.68367 1.16417,0.55298 2.71198,1.25528 3.43959,1.56068 1.76223,0.73965 1.80982,2.02668 0.13511,3.65348 -1.01442,0.9854 -1.4299,1.14653 -2.95633,1.14653 -1.01598,0 -2.43416,-0.29863 -3.31387,-0.69781 -1.87549,-0.85102 -3.84188,-0.87347 -5.94443,-0.0679 -1.76676,0.67695 -2.16182,1.50858 -1.21409,2.55581 0.82485,0.91145 1.1995,0.88003 5.0997,-0.42762 3.89501,-1.30592 4.97326,-1.22185 5.84059,0.45538 0.72674,1.40537 0.25944,2.58209 -1.14403,2.8808 -0.55032,0.11713 -1.95307,1.09794 -3.11724,2.17958 -1.16416,1.08165 -2.68925,2.27003 -3.38908,2.64086 -2.2293,1.18126 -3.07425,5.14091 -2.07143,9.70725 0.3326,1.51449 0.002,2.27314 -0.6483,1.48918 z m 48.26576,-1.24224 c 0,-0.93133 0.14614,-1.84414 0.32475,-2.02847 0.17862,-0.18433 0.89647,-1.48014 1.59522,-2.87958 0.95452,-1.91167 1.31542,-3.13992 1.45123,-4.93889 0.0994,-1.31695 0.31847,-2.95007 0.48678,-3.62917 0.16832,-0.6791 0.40308,-2.2666 0.52169,-3.52778 0.11862,-1.26118 0.44117,-3.14099 0.71679,-4.17735 0.54084,-2.03365 0.40553,-2.97472 -0.40362,-2.80733 -0.95535,0.19763 -3.47456,6.0717 -3.06344,7.14305 0.13939,0.36326 -0.0137,0.44238 -0.57302,0.29612 -0.41979,-0.10978 -0.60172,-0.29943 -0.4043,-0.42144 0.36474,-0.22542 0.79599,-1.42889 2.09767,-5.85388 1.00649,-3.42149 1.18029,-4.50719 0.813,-5.07849 -0.17764,-0.27632 -0.57025,-0.39502 -0.89474,-0.2705 -0.61253,0.23505 -3.37357,5.8831 -3.37357,6.90106 0,0.32993 -0.14531,0.75069 -0.3229,0.93501 -0.1776,0.18433 -0.37604,0.71958 -0.44097,1.18945 -0.14474,1.04729 -0.86806,1.35769 -1.13725,0.48803 -0.10841,-0.35023 -0.34841,-1.98616 -0.53333,-3.63539 -0.65178,-5.81303 -1.09826,-7.71514 -1.86834,-7.95955 -1.52298,-0.48337 -1.70461,0.61303 -1.21802,7.35243 0.20629,2.85713 0.46216,4.31751 0.81895,4.6743 0.28541,0.28541 0.36182,0.51893 0.1698,0.51893 -0.19202,0 -0.63992,0.10274 -0.99533,0.22831 -0.4675,0.16517 -0.54549,0.11809 -0.28198,-0.17022 0.56627,-0.61956 -0.3651,-10.26431 -1.05812,-10.95733 -0.48594,-0.48594 -0.60351,-0.47809 -1.1582,0.0773 -0.54914,0.5498 -0.61736,1.44511 -0.61736,8.10129 0,4.11574 -0.12844,7.6816 -0.28541,7.92414 -0.44943,0.69442 -2.14957,0.51644 -3.45772,-0.36196 -3.36708,-2.26095 -5.539,-2.98307 -6.1242,-2.0362 -0.11417,0.18473 0.81852,1.36199 2.07266,2.61612 1.25413,1.25413 2.71039,2.9683 3.23613,3.80926 0.52574,0.84097 1.44898,2.10707 2.05166,2.81357 2.73697,3.2085 2.68327,3.10651 2.68327,5.09543 0,1.05067 -0.15875,1.91031 -0.35278,1.91031 -0.19403,0 -0.35278,-0.84185 -0.35278,-1.87078 0,-1.54635 -0.1968,-2.14284 -1.13481,-3.43959 -0.62415,-0.86284 -1.32619,-1.68884 -1.56008,-1.83557 -0.2339,-0.14672 -0.78429,-0.86109 -1.22309,-1.5875 -1.18835,-1.96722 -4.00688,-5.1572 -5.40026,-6.11196 -1.14047,-0.78147 -1.18687,-0.88409 -0.66192,-1.46415 1.17619,-1.29968 3.3892,-0.75621 7.11897,1.74828 1.31511,0.88308 1.71907,0.95673 2.50841,0.45736 0.44343,-0.28054 0.52917,-1.55676 0.52917,-7.87685 0,-8.36576 0.13646,-8.9482 2.00871,-8.57375 0.80792,0.16158 0.9899,0.0743 0.9899,-0.47498 0,-0.75985 1.0739,-1.22786 2.08272,-0.90768 0.73438,0.23309 1.09278,1.80118 1.81664,7.94828 0.21705,1.84326 0.50575,3.4682 0.64154,3.61098 0.1358,0.14278 0.45332,-0.49222 0.70561,-1.41111 0.52015,-1.89451 2.31618,-6.21097 3.08044,-7.40334 0.30116,-0.46987 0.86257,-0.79375 1.37585,-0.79375 1.08507,0 1.40021,1.03691 0.93899,3.08963 -0.31779,1.41438 -0.30139,1.46252 0.37494,1.10056 0.54581,-0.29211 0.83386,-0.25191 1.26188,0.17611 0.50432,0.50432 0.49993,0.78744 -0.0485,3.12125 -0.3317,1.41164 -0.74765,3.83661 -0.92434,5.38883 -0.17669,1.55223 -0.4054,3.06035 -0.50826,3.35139 -0.10285,0.29105 -0.25712,1.58503 -0.34282,2.87553 -0.12295,1.85155 -0.4606,2.95083 -1.6011,5.21267 -1.0494,2.08116 -1.4453,3.29863 -1.4453,4.44461 0,0.86807 -0.15875,1.5783 -0.35277,1.5783 -0.19403,0 -0.35278,-0.762 -0.35278,-1.69333 z M 20.263143,172.62594 c -2.050187,-0.39501 -2.337719,-1.02089 -2.263605,-4.92729 0.03515,-1.85256 0.181173,-3.76518 0.324501,-4.25025 0.143328,-0.48506 0.186944,0.9751 0.09692,3.24482 -0.153408,3.86792 -0.116101,4.17433 0.594787,4.88522 0.559613,0.55961 1.003755,0.6996 1.694075,0.53394 0.514587,-0.12349 1.273882,-0.28172 1.687321,-0.35162 1.119582,-0.18931 2.353647,-1.09758 3.602174,-2.65121 1.303112,-1.62155 1.507672,-3.68592 0.489798,-4.94294 l -0.624376,-0.77107 -0.963124,0.75759 c -1.125687,0.88547 -1.186325,1.2779 -0.345763,2.23773 0.587963,0.67139 0.587963,0.69424 0,0.47982 -0.908211,-0.3312 -1.583587,0.0433 -1.826968,1.01297 -0.118221,0.47103 -0.362572,0.85642 -0.543002,0.85642 -0.180431,0 -0.09803,-0.55052 0.18311,-1.22339 0.281141,-0.67287 0.511165,-1.94287 0.511165,-2.82222 0,-0.87936 0.120207,-1.59883 0.267126,-1.59883 0.146918,0 0.235454,0.75406 0.196745,1.67569 -0.05319,1.26651 -0.01074,1.42637 0.173847,0.65465 0.290243,-1.21343 1.888852,-2.51928 2.702054,-2.20723 0.965468,0.37049 1.673918,2.54831 1.285998,3.95324 -0.482611,1.74787 -2.26907,3.84499 -4.00914,4.70631 -2.414503,1.19516 -0.30937,0.93583 2.675629,-0.32961 3.567029,-1.51218 3.469248,-1.43659 4.716833,-3.64599 0.972319,-1.72191 1.886074,-5.53159 1.592943,-6.64139 -0.07158,-0.27098 4.195256,-4.48839 4.992213,-4.93439 0.300238,-0.16802 0.666443,-0.0728 0.926888,0.24102 0.35343,0.42586 0.28151,0.57746 -0.401542,0.84639 -0.457652,0.18018 -1.753669,1.26783 -2.880039,2.417 -1.92352,1.96246 -2.060593,2.21619 -2.256102,4.17616 -0.293804,2.94538 -2.239919,6.33114 -3.966668,6.90102 -0.684698,0.22597 -2.040765,0.78146 -3.013484,1.23443 -1.803764,0.83997 -3.161857,0.95668 -5.620317,0.48301 z M 192.4002,171.9114 c 0.28021,-1.63006 -0.28654,-3.02586 -1.8133,-4.46577 -1.34979,-1.27302 -1.1388,-1.61045 0.29955,-0.47904 1.66606,1.31052 2.55629,4.34023 1.66133,5.65404 -0.26297,0.38605 -0.30289,0.19425 -0.14758,-0.70923 z m -89.1749,-0.90425 c -0.72234,-0.39144 -0.97014,-0.79317 -0.97014,-1.57279 0,-0.87727 -0.14079,-1.04707 -0.8682,-1.04707 -1.06451,0 -2.3068,-1.2621 -2.3068,-2.34359 0,-0.92377 -0.485104,-1.04269 -5.41413,-1.32726 -3.206238,-0.18511 -4.11087,-0.54178 -4.11087,-1.62081 0,-1.06573 0.780218,-1.34859 4.412682,-1.59974 3.390682,-0.23444 8.775088,-1.23988 9.265338,-1.73014 0.2932,-0.2932 -0.51391,-0.83665 -1.68358,-1.13359 -1.10582,-0.28073 -7.713347,-3.4765 -8.584744,-4.15207 -0.355988,-0.27598 -0.731163,-1.12741 -0.833723,-1.89207 -0.169965,-1.26717 -0.10614,-1.41045 0.720732,-1.61798 0.808284,-0.20286 3.258139,0.47876 4.288018,1.19306 0.409419,0.28396 2.913137,1.12378 6.146117,2.06159 l 2.26557,0.65718 1.03022,-1.0539 c 1.51998,-1.55492 4.07078,-3.43234 4.66342,-3.43234 0.89786,0 4.90277,1.99691 5.93299,2.95829 0.86929,0.81119 1.28353,0.92226 3.43958,0.92226 1.39899,0 2.45127,0.15144 2.45127,0.35278 0,0.20107 -1.0459,0.35278 -2.43214,0.35278 -2.23579,0 -2.52718,-0.0888 -3.60947,-1.0998 -1.4561,-1.3602 -5.61183,-3.31773 -6.1628,-2.90295 -0.21814,0.16422 -0.85546,0.60693 -1.41625,0.98381 -1.7245,1.15893 -3.69823,3.41237 -3.52992,4.03017 0.0863,0.31695 0.36243,1.42185 0.61351,2.45533 0.57539,2.3684 1.37929,2.89922 2.40873,1.59049 0.96834,-1.23105 1.25137,-2.45031 0.79917,-3.44278 -0.33512,-0.73551 -0.27742,-0.80566 0.68524,-0.83303 0.57815,-0.0164 1.27829,-0.21838 1.55588,-0.44876 0.6455,-0.53571 0.64485,-0.0485 -0.002,1.49961 -1.02383,2.45037 0.4418,5.19798 2.78211,5.21562 0.64295,0.005 0.91261,0.1323 0.70556,0.33348 -0.50301,0.48875 -2.14811,0.0496 -3.09228,-0.82538 -0.97186,-0.90069 -1.46288,-3.25875 -0.95611,-4.59165 0.29787,-0.7831 0.25011,-0.90583 -0.3523,-0.90583 -0.57331,0 -0.69682,0.24086 -0.69682,1.35894 0,1.53211 -1.24458,3.68064 -2.24352,3.87301 -1.04039,0.20037 -1.88651,-0.9051 -2.13678,-2.79171 -0.40375,-3.04362 -0.57565,-3.25358 -3.2525,-3.97241 -2.941016,-0.78977 -3.977213,-1.15102 -6.441055,-2.24557 -1.04666,-0.46497 -2.31666,-0.79738 -2.822222,-0.73869 -0.771307,0.0895 -0.907698,0.26877 -0.847708,1.11394 0.03932,0.55398 0.356821,1.2287 0.705556,1.49938 0.795856,0.61773 7.731929,4.01978 8.195499,4.01978 0.83083,0 2.13995,0.87171 2.13995,1.42494 0,1.05582 -3.22043,1.82593 -9.877776,2.36209 -3.261057,0.26264 -3.351389,0.29352 -3.351389,1.14587 0,0.74317 0.213924,0.91562 1.411111,1.13758 0.776111,0.14389 3.920268,0.28285 6.987014,0.30879 4.33831,0.0367 6.1173,-0.0932 8.01514,-0.58548 2.09593,-0.54361 2.56484,-0.56543 3.33173,-0.155 1.13063,0.60509 1.13033,1.18467 -0.001,2.0088 l -0.89352,0.65089 1.14928,-0.004 c 1.43247,-0.005 1.70768,0.86626 0.61782,1.95612 -0.89882,0.89882 -0.6125,1.19986 1.45582,1.53059 1.87194,0.29934 2.78367,-0.14594 5.30639,-2.59157 2.13862,-2.07322 2.25533,-2.13397 4.10034,-2.13397 1.17622,0 1.81609,0.13428 1.68105,0.35278 -0.11992,0.19403 -0.93482,0.35278 -1.8109,0.35278 -1.44688,0 -1.77728,0.1759 -3.60496,1.9192 -1.10665,1.05557 -2.48392,2.09908 -3.06061,2.31893 -1.14055,0.4348 -3.92938,0.17133 -4.67387,-0.44156 -0.32637,-0.26867 -0.90906,-0.12563 -2.11667,0.51962 -2.21338,1.18265 -3.88353,1.43553 -5.10591,0.77311 z m 5.68486,-1.62148 c 2.73526,-1.83419 3.20711,-3.05652 0.98433,-2.54991 -0.61212,0.13951 -1.35107,0.28551 -1.64211,0.32445 -0.29104,0.0389 -0.76729,0.16134 -1.05833,0.27201 -0.29104,0.11066 -1.44198,0.45464 -2.55764,0.76439 -2.30937,0.64116 -2.72638,1.56637 -1.09198,2.42272 1.2498,0.65483 3.2276,0.20011 5.36573,-1.23366 z m -2.74865,-2.26335 c 1.47638,-0.50171 3.07305,-1.25577 3.54816,-1.67569 0.47511,-0.41993 0.79384,-0.72628 0.70829,-0.68079 -0.0855,0.0455 -0.34252,-0.17301 -0.57106,-0.48555 -0.38196,-0.52236 -0.60028,-0.52192 -2.70325,0.005 -1.25825,0.31556 -3.20084,0.57375 -4.31686,0.57375 -3.208051,0 -4.136273,0.83395 -2.67455,2.40292 0.96838,1.03944 2.65382,1.00014 6.00927,-0.14012 z m -91.323453,3.03109 c -0.330525,-0.58085 -0.854162,-1.0571 -1.163638,-1.05833 -0.871952,-0.003 -1.730371,-1.17925 -1.730371,-2.37011 0,-0.7509 -0.197412,-1.12923 -0.651127,-1.24788 -0.780756,-0.20417 -1.076506,-2.05849 -0.914349,-5.73285 0.183448,-4.15677 0.454386,-5.28936 1.490966,-6.23262 1.826284,-1.66187 6.390341,-3.01433 11.362609,-3.36707 l 2.645044,-0.18764 2.025251,-2.14827 c 1.443706,-1.53139 2.134091,-2.03942 2.404288,-1.76922 0.270198,0.2702 -0.217508,1.00595 -1.698453,2.56227 -2.052662,2.15713 -2.104575,2.1854 -4.343776,2.36522 -1.246458,0.1001 -2.742536,0.31958 -3.32462,0.48774 -0.582083,0.16816 -1.981065,0.48824 -3.108847,0.71128 -2.533568,0.50107 -4.834828,1.49532 -5.716834,2.46992 -1.076767,1.18982 -1.737931,7.96092 -0.99829,10.22367 0.33871,1.03619 1.179232,-0.76843 1.222655,-2.62507 0.02296,-0.98156 0.175693,-2.26091 0.339416,-2.84299 0.234614,-0.83412 0.266492,-0.68465 0.150473,0.70556 -0.647639,7.76036 -0.653215,7.36639 0.114095,8.06025 0.396511,0.35855 0.873166,0.55783 1.059234,0.44283 0.186067,-0.11499 0.525056,-1.59898 0.753308,-3.29775 0.228252,-1.69877 0.562507,-3.48554 0.74279,-3.97061 0.363193,-0.97721 0.391183,-1.28999 -0.416858,4.6581 -0.37451,2.7568 -0.354644,3.16597 0.194396,4.00391 0.45594,0.69586 0.827996,0.89194 1.462304,0.77069 0.467923,-0.0894 0.850769,-0.0259 0.850769,0.14122 0,0.16712 -0.483633,0.30386 -1.074741,0.30386 -0.82464,0 -1.214588,-0.24577 -1.675694,-1.05611 z M 60.18641,169.9494 c -0.533577,-0.28947 -0.970139,-0.65308 -0.970139,-0.80801 0,-0.15494 -0.754063,-0.81576 -1.675695,-1.46848 -2.789717,-1.97574 -4.220654,-3.62047 -5.707496,-6.56022 -1.175022,-2.32322 -1.779591,-3.07329 -3.529552,-4.37899 -1.161415,-0.86656 -2.118047,-1.69464 -2.12585,-1.84016 -0.03168,-0.59103 1.027088,-0.19896 2.381656,0.88195 2.056465,1.641 3.432531,3.51679 3.958798,5.39643 0.510639,1.82382 2.630897,4.25678 5.375222,6.16799 0.921632,0.64184 1.675695,1.29475 1.675695,1.4509 0,0.30897 1.871077,1.36037 2.420916,1.36037 0.186609,0 0.449735,-0.65372 0.584726,-1.45271 0.243187,-1.43943 0.221865,-1.47645 -2.331163,-4.04663 -1.41713,-1.42665 -2.488745,-2.68176 -2.381366,-2.78914 0.107378,-0.10738 0.396042,0.0467 0.641477,0.34246 0.245434,0.29573 0.788102,0.53769 1.205925,0.53769 0.417822,0 1.879973,0.69718 3.249224,1.54929 4.080503,2.53937 6.783493,3.82258 8.446915,4.01007 1.241111,0.1399 1.568901,0.0657 1.568901,-0.35501 0,-0.29252 -0.238125,-0.72947 -0.529166,-0.97102 -0.291042,-0.24154 -0.529167,-0.63859 -0.529167,-0.88234 0,-0.24374 -0.470987,-0.63826 -1.046635,-0.8767 -0.575652,-0.23844 -1.24084,-0.66753 -1.478199,-0.95353 -0.23736,-0.286 -1.369939,-0.99369 -2.51684,-1.57265 -1.146902,-0.57895 -2.005623,-1.13229 -1.908267,-1.22965 0.21167,-0.21167 3.71033,1.50301 4.522244,2.21634 1.07677,0.94603 4.53244,2.88708 5.529933,3.10616 0.730892,0.16053 1.16144,0.038 1.610625,-0.45833 0.949148,-1.0488 0.440549,-2.281 -1.297341,-3.14314 -5.397835,-2.67777 -8.837393,-4.66021 -8.562477,-4.93512 0.09616,-0.0962 0.698249,0.15571 1.33798,0.55971 0.639727,0.40401 2.115644,1.21238 3.27981,1.79639 1.164167,0.58401 2.669816,1.38369 3.345886,1.77707 1.214434,0.70664 2.501734,0.92364 2.931248,0.49412 0.569832,-0.56983 -0.909644,-2.21373 -2.821019,-3.13453 -1.124751,-0.54185 -2.759379,-1.48333 -3.632504,-2.09218 -0.873125,-0.60885 -2.024062,-1.32586 -2.557638,-1.59336 -0.533577,-0.26751 -0.970139,-0.63124 -0.970139,-0.80831 0,-0.32932 1.470864,0.48247 4.1569,2.29423 0.831085,0.56058 2.240351,1.34183 3.131704,1.73612 1.328593,0.5877 1.675144,0.63087 1.923115,0.23954 0.166363,-0.26253 0.304909,-0.58234 0.30788,-0.71068 0.0052,-0.22188 -4.209853,-3.50119 -6.561353,-5.10481 -3.770104,-2.57105 -6.27246,-3.59192 -11.95408,-4.87687 -3.096592,-0.70032 -6.565868,-2.763 -5.850453,-3.47841 0.25799,-0.25799 0.843097,-0.03 1.934193,0.75352 0.860372,0.61787 2.966625,1.59459 4.680564,2.17048 6.457671,2.1698 7.333682,2.50616 8.866829,3.40465 2.074038,1.21546 3.228386,2.01116 6.543386,4.51037 2.55826,1.92869 2.749533,2.16124 2.559435,3.11173 -0.123825,0.61913 0.0134,1.4505 0.345405,2.09251 0.614948,1.18918 0.45285,2.05989 -0.383477,2.05989 -0.43707,0 -0.476275,0.14271 -0.187459,0.68237 0.557643,1.04196 0.438792,1.96389 -0.344565,2.67282 -0.598809,0.54192 -0.943458,0.58883 -2.204861,0.30014 l -1.495108,-0.34217 v 1.07745 c 0,1.03764 -0.05384,1.07514 -1.457339,1.01483 -1.502509,-0.0646 -5.138723,-1.70837 -8.431795,-3.81171 -2.235365,-1.42776 -3.340033,-2.0212 -3.340033,-1.7943 0,0.0974 0.714375,0.98137 1.5875,1.96446 1.216763,1.37001 1.5875,2.06631 1.5875,2.98154 0,2.36389 -0.84716,2.87491 -2.910416,1.75557 z"
         id="path836"
         inkscape:connector-curvature="0" />
      <path
         style="fill:#aeb7b4;stroke-width:0.35277778"
         d="m 148.18107,178.87231 c -0.7248,-0.87332 -1.08973,-5.98202 -0.57034,-7.9843 0.60278,-2.32378 0.60256,-2.32348 2.41766,-3.22999 0.84885,-0.42394 2.55182,-1.70699 3.78438,-2.85122 1.23255,-1.14424 2.67963,-2.17635 3.21572,-2.29359 1.75114,-0.38296 1.59928,-3.0371 -0.19959,-3.48859 -0.45341,-0.1138 -2.09601,0.26147 -3.84214,0.87778 -3.74026,1.32015 -4.83699,1.35681 -5.92554,0.19811 -1.17921,-1.25522 -0.59792,-2.38039 1.62022,-3.13619 2.2337,-0.76109 4.56393,-0.70978 6.44072,0.14183 2.13991,0.97101 4.43078,0.93336 5.14375,-0.0845 0.76006,-1.08515 0.46517,-1.29016 -4.73207,-3.28978 l -4.40049,-1.69307 -2.11981,0.74262 c -2.38551,0.8357 -3.14257,0.74901 -1.05956,-0.12133 2.58694,-1.0809 3.38035,-1.02521 7.37448,0.51756 2.06659,0.79824 3.96342,1.45134 4.21517,1.45134 0.25176,0 0.74168,0.31376 1.08873,0.69724 0.71628,0.79149 1.24225,0.64067 1.24225,-0.35622 0,-0.39395 -0.44129,-0.90387 -1.05834,-1.22296 -0.58208,-0.30101 -1.05833,-0.45518 -1.05833,-0.3426 0,0.11257 -1.07156,-0.34993 -2.38125,-1.02779 -3.81974,-1.977 -6.87176,-3.09052 -7.82335,-2.85434 -0.47079,0.11686 -2.77964,1.16753 -5.13077,2.33483 l -4.27479,2.12236 -0.80462,4.1171 c -0.44254,2.26441 -0.96896,4.8779 -1.16981,5.80777 -0.20085,0.92986 -0.26196,2.51736 -0.13579,3.52778 0.72885,5.83708 0.82775,7.80329 0.39933,7.93946 -0.32903,0.10458 -1.32926,-3.19197 -1.19675,-3.94423 0.0382,-0.21683 -0.0541,-1.68747 -0.20514,-3.26809 -0.17028,-1.78221 -0.13104,-3.59127 0.1033,-4.7625 1.37711,-6.88269 1.88715,-8.99362 2.26235,-9.36338 0.67396,-0.6642 8.9341,-4.68688 10.10478,-4.92101 1.09582,-0.21916 3.68863,0.65505 7.95945,2.68367 1.16417,0.55298 2.71198,1.25528 3.43959,1.56068 1.76223,0.73965 1.80982,2.02668 0.13511,3.65348 -1.01442,0.9854 -1.4299,1.14653 -2.95633,1.14653 -1.01598,0 -2.43416,-0.29863 -3.31387,-0.69781 -1.87549,-0.85102 -3.84188,-0.87347 -5.94443,-0.0679 -1.76676,0.67695 -2.16182,1.50858 -1.21409,2.55581 0.82485,0.91145 1.1995,0.88003 5.0997,-0.42762 3.89501,-1.30592 4.97326,-1.22185 5.84059,0.45538 0.72674,1.40537 0.25944,2.58209 -1.14403,2.8808 -0.55032,0.11713 -1.95307,1.09794 -3.11724,2.17958 -1.16416,1.08165 -2.68925,2.27003 -3.38908,2.64086 -2.2293,1.18126 -3.07425,5.14091 -2.07143,9.70725 0.3326,1.51449 0.002,2.27314 -0.6483,1.48918 z m 48.26576,-1.24224 c 0,-0.93133 0.14614,-1.84414 0.32475,-2.02847 0.17862,-0.18433 0.89647,-1.48014 1.59522,-2.87958 0.95452,-1.91167 1.31542,-3.13992 1.45123,-4.93889 0.0994,-1.31695 0.31847,-2.95007 0.48678,-3.62917 0.16832,-0.6791 0.40308,-2.2666 0.52169,-3.52778 0.11862,-1.26118 0.44117,-3.14099 0.71679,-4.17735 0.54084,-2.03365 0.40553,-2.97472 -0.40362,-2.80733 -0.95535,0.19763 -3.47456,6.0717 -3.06344,7.14305 0.13939,0.36326 -0.0137,0.44238 -0.57302,0.29612 -0.41979,-0.10978 -0.60172,-0.29943 -0.4043,-0.42144 0.36474,-0.22542 0.79599,-1.42889 2.09767,-5.85388 1.00649,-3.42149 1.18029,-4.50719 0.813,-5.07849 -0.17764,-0.27632 -0.57025,-0.39502 -0.89474,-0.2705 -0.61253,0.23505 -3.37357,5.8831 -3.37357,6.90106 0,0.32993 -0.14531,0.75069 -0.3229,0.93501 -0.1776,0.18433 -0.37604,0.71958 -0.44097,1.18945 -0.14474,1.04729 -0.86806,1.35769 -1.13725,0.48803 -0.10841,-0.35023 -0.34841,-1.98616 -0.53333,-3.63539 -0.65178,-5.81303 -1.09826,-7.71514 -1.86834,-7.95955 -1.52298,-0.48337 -1.70461,0.61303 -1.21802,7.35243 0.20629,2.85713 0.46216,4.31751 0.81895,4.6743 0.28541,0.28541 0.36182,0.51893 0.1698,0.51893 -0.19202,0 -0.63992,0.10274 -0.99533,0.22831 -0.4675,0.16517 -0.54549,0.11809 -0.28198,-0.17022 0.56627,-0.61956 -0.3651,-10.26431 -1.05812,-10.95733 -0.48594,-0.48594 -0.60351,-0.47809 -1.1582,0.0773 -0.54914,0.5498 -0.61736,1.44511 -0.61736,8.10129 0,4.11574 -0.12844,7.6816 -0.28541,7.92414 -0.44943,0.69442 -2.14957,0.51644 -3.45772,-0.36196 -3.36708,-2.26095 -5.539,-2.98307 -6.1242,-2.0362 -0.11417,0.18473 0.81852,1.36199 2.07266,2.61612 1.25413,1.25413 2.71039,2.9683 3.23613,3.80926 0.52574,0.84097 1.44898,2.10707 2.05166,2.81357 2.73697,3.2085 2.68327,3.10651 2.68327,5.09543 0,1.05067 -0.15875,1.91031 -0.35278,1.91031 -0.19403,0 -0.35278,-0.84185 -0.35278,-1.87078 0,-1.54635 -0.1968,-2.14284 -1.13481,-3.43959 -0.62415,-0.86284 -1.32619,-1.68884 -1.56008,-1.83557 -0.2339,-0.14672 -0.78429,-0.86109 -1.22309,-1.5875 -1.18835,-1.96722 -4.00688,-5.1572 -5.40026,-6.11196 -1.14047,-0.78147 -1.18687,-0.88409 -0.66192,-1.46415 1.17619,-1.29968 3.3892,-0.75621 7.11897,1.74828 1.31511,0.88308 1.71907,0.95673 2.50841,0.45736 0.44343,-0.28054 0.52917,-1.55676 0.52917,-7.87685 0,-8.36576 0.13646,-8.9482 2.00871,-8.57375 0.80792,0.16158 0.9899,0.0743 0.9899,-0.47498 0,-0.75985 1.0739,-1.22786 2.08272,-0.90768 0.73438,0.23309 1.09278,1.80118 1.81664,7.94828 0.21705,1.84326 0.50575,3.4682 0.64154,3.61098 0.1358,0.14278 0.45332,-0.49222 0.70561,-1.41111 0.52015,-1.89451 2.31618,-6.21097 3.08044,-7.40334 0.30116,-0.46987 0.86257,-0.79375 1.37585,-0.79375 1.08507,0 1.40021,1.03691 0.93899,3.08963 -0.31779,1.41438 -0.30139,1.46252 0.37494,1.10056 0.54581,-0.29211 0.83386,-0.25191 1.26188,0.17611 0.50432,0.50432 0.49993,0.78744 -0.0485,3.12125 -0.3317,1.41164 -0.74765,3.83661 -0.92434,5.38883 -0.17669,1.55223 -0.4054,3.06035 -0.50826,3.35139 -0.10285,0.29105 -0.25712,1.58503 -0.34282,2.87553 -0.12295,1.85155 -0.4606,2.95083 -1.6011,5.21267 -1.0494,2.08116 -1.4453,3.29863 -1.4453,4.44461 0,0.86807 -0.15875,1.5783 -0.35277,1.5783 -0.19403,0 -0.35278,-0.762 -0.35278,-1.69333 z M 20.263143,172.62594 c -2.050187,-0.39501 -2.337719,-1.02089 -2.263605,-4.92729 0.03515,-1.85256 0.181173,-3.76518 0.324501,-4.25025 0.143328,-0.48506 0.186944,0.9751 0.09692,3.24482 -0.153408,3.86792 -0.116101,4.17433 0.594787,4.88522 0.559613,0.55961 1.003755,0.6996 1.694075,0.53394 0.514587,-0.12349 1.273882,-0.28172 1.687321,-0.35162 1.119582,-0.18931 2.353647,-1.09758 3.602174,-2.65121 1.303112,-1.62155 1.507672,-3.68592 0.489798,-4.94294 l -0.624376,-0.77107 -0.963124,0.75759 c -1.125687,0.88547 -1.186325,1.2779 -0.345763,2.23773 0.587963,0.67139 0.587963,0.69424 0,0.47982 -0.908211,-0.3312 -1.583587,0.0433 -1.826968,1.01297 -0.118221,0.47103 -0.362572,0.85642 -0.543002,0.85642 -0.180431,0 -0.09803,-0.55052 0.18311,-1.22339 0.281141,-0.67287 0.511165,-1.94287 0.511165,-2.82222 0,-0.87936 0.120207,-1.59883 0.267126,-1.59883 0.146918,0 0.235454,0.75406 0.196745,1.67569 -0.05319,1.26651 -0.01074,1.42637 0.173847,0.65465 0.290243,-1.21343 1.888852,-2.51928 2.702054,-2.20723 0.965468,0.37049 1.673918,2.54831 1.285998,3.95324 -0.482611,1.74787 -2.26907,3.84499 -4.00914,4.70631 -2.414503,1.19516 -0.30937,0.93583 2.675629,-0.32961 3.567029,-1.51218 3.469248,-1.43659 4.716833,-3.64599 0.972319,-1.72191 1.886074,-5.53159 1.592943,-6.64139 -0.07158,-0.27098 4.195256,-4.48839 4.992213,-4.93439 0.300238,-0.16802 0.666443,-0.0728 0.926888,0.24102 0.35343,0.42586 0.28151,0.57746 -0.401542,0.84639 -0.457652,0.18018 -1.753669,1.26783 -2.880039,2.417 -1.92352,1.96246 -2.060593,2.21619 -2.256102,4.17616 -0.293804,2.94538 -2.239919,6.33114 -3.966668,6.90102 -0.684698,0.22597 -2.040765,0.78146 -3.013484,1.23443 -1.803764,0.83997 -3.161857,0.95668 -5.620317,0.48301 z M 192.4002,171.9114 c 0.28021,-1.63006 -0.28654,-3.02586 -1.8133,-4.46577 -1.34979,-1.27302 -1.1388,-1.61045 0.29955,-0.47904 1.66606,1.31052 2.55629,4.34023 1.66133,5.65404 -0.26297,0.38605 -0.30289,0.19425 -0.14758,-0.70923 z m -89.1749,-0.90425 c -0.72234,-0.39144 -0.97014,-0.79317 -0.97014,-1.57279 0,-0.87727 -0.14079,-1.04707 -0.8682,-1.04707 -1.06451,0 -2.3068,-1.2621 -2.3068,-2.34359 0,-0.92377 -0.485104,-1.04269 -5.41413,-1.32726 -3.206238,-0.18511 -4.11087,-0.54178 -4.11087,-1.62081 0,-1.06573 0.780218,-1.34859 4.412682,-1.59974 3.390682,-0.23444 8.775088,-1.23988 9.265338,-1.73014 0.2932,-0.2932 -0.51391,-0.83665 -1.68358,-1.13359 -1.10582,-0.28073 -7.713347,-3.4765 -8.584744,-4.15207 -0.355988,-0.27598 -0.731163,-1.12741 -0.833723,-1.89207 -0.169965,-1.26717 -0.10614,-1.41045 0.720732,-1.61798 0.808284,-0.20286 3.258139,0.47876 4.288018,1.19306 0.409419,0.28396 2.913137,1.12378 6.146117,2.06159 l 2.26557,0.65718 1.03022,-1.0539 c 1.51998,-1.55492 4.07078,-3.43234 4.66342,-3.43234 0.89786,0 4.90277,1.99691 5.93299,2.95829 0.86929,0.81119 1.28353,0.92226 3.43958,0.92226 1.39899,0 2.45127,0.15144 2.45127,0.35278 0,0.20107 -1.0459,0.35278 -2.43214,0.35278 -2.23579,0 -2.52718,-0.0888 -3.60947,-1.0998 -1.4561,-1.3602 -5.61183,-3.31773 -6.1628,-2.90295 -0.21814,0.16422 -0.85546,0.60693 -1.41625,0.98381 -1.7245,1.15893 -3.69823,3.41237 -3.52992,4.03017 0.0863,0.31695 0.36243,1.42185 0.61351,2.45533 0.57539,2.3684 1.37929,2.89922 2.40873,1.59049 0.96834,-1.23105 1.25137,-2.45031 0.79917,-3.44278 -0.33512,-0.73551 -0.27742,-0.80566 0.68524,-0.83303 0.57815,-0.0164 1.27829,-0.21838 1.55588,-0.44876 0.6455,-0.53571 0.64485,-0.0485 -0.002,1.49961 -1.02383,2.45037 0.4418,5.19798 2.78211,5.21562 0.64295,0.005 0.91261,0.1323 0.70556,0.33348 -0.50301,0.48875 -2.14811,0.0496 -3.09228,-0.82538 -0.97186,-0.90069 -1.46288,-3.25875 -0.95611,-4.59165 0.29787,-0.7831 0.25011,-0.90583 -0.3523,-0.90583 -0.57331,0 -0.69682,0.24086 -0.69682,1.35894 0,1.53211 -1.24458,3.68064 -2.24352,3.87301 -1.04039,0.20037 -1.88651,-0.9051 -2.13678,-2.79171 -0.40375,-3.04362 -0.57565,-3.25358 -3.2525,-3.97241 -2.941016,-0.78977 -3.977213,-1.15102 -6.441055,-2.24557 -1.04666,-0.46497 -2.31666,-0.79738 -2.822222,-0.73869 -0.771307,0.0895 -0.907698,0.26877 -0.847708,1.11394 0.03932,0.55398 0.356821,1.2287 0.705556,1.49938 0.795856,0.61773 7.731929,4.01978 8.195499,4.01978 0.83083,0 2.13995,0.87171 2.13995,1.42494 0,1.05582 -3.22043,1.82593 -9.877776,2.36209 -3.261057,0.26264 -3.351389,0.29352 -3.351389,1.14587 0,0.74317 0.213924,0.91562 1.411111,1.13758 0.776111,0.14389 3.920268,0.28285 6.987014,0.30879 4.33831,0.0367 6.1173,-0.0932 8.01514,-0.58548 2.09593,-0.54361 2.56484,-0.56543 3.33173,-0.155 1.13063,0.60509 1.13033,1.18467 -0.001,2.0088 l -0.89352,0.65089 1.14928,-0.004 c 1.43247,-0.005 1.70768,0.86626 0.61782,1.95612 -0.89882,0.89882 -0.6125,1.19986 1.45582,1.53059 1.87194,0.29934 2.78367,-0.14594 5.30639,-2.59157 2.13862,-2.07322 2.25533,-2.13397 4.10034,-2.13397 1.17622,0 1.81609,0.13428 1.68105,0.35278 -0.11992,0.19403 -0.93482,0.35278 -1.8109,0.35278 -1.44688,0 -1.77728,0.1759 -3.60496,1.9192 -1.10665,1.05557 -2.48392,2.09908 -3.06061,2.31893 -1.14055,0.4348 -3.92938,0.17133 -4.67387,-0.44156 -0.32637,-0.26867 -0.90906,-0.12563 -2.11667,0.51962 -2.21338,1.18265 -3.88353,1.43553 -5.10591,0.77311 z m 5.68486,-1.62148 c 2.73526,-1.83419 3.20711,-3.05652 0.98433,-2.54991 -0.61212,0.13951 -1.35107,0.28551 -1.64211,0.32445 -0.29104,0.0389 -0.76729,0.16134 -1.05833,0.27201 -0.29104,0.11066 -1.44198,0.45464 -2.55764,0.76439 -2.30937,0.64116 -2.72638,1.56637 -1.09198,2.42272 1.2498,0.65483 3.2276,0.20011 5.36573,-1.23366 z m -2.74865,-2.26335 c 1.47638,-0.50171 3.07305,-1.25577 3.54816,-1.67569 0.47511,-0.41993 0.79384,-0.72628 0.70829,-0.68079 -0.0855,0.0455 -0.34252,-0.17301 -0.57106,-0.48555 -0.38196,-0.52236 -0.60028,-0.52192 -2.70325,0.005 -1.25825,0.31556 -3.20084,0.57375 -4.31686,0.57375 -3.208051,0 -4.136273,0.83395 -2.67455,2.40292 0.96838,1.03944 2.65382,1.00014 6.00927,-0.14012 z m -91.323453,3.03109 c -0.330525,-0.58085 -0.854162,-1.0571 -1.163638,-1.05833 -0.871952,-0.003 -1.730371,-1.17925 -1.730371,-2.37011 0,-0.7509 -0.197412,-1.12923 -0.651127,-1.24788 -0.780756,-0.20417 -1.076506,-2.05849 -0.914349,-5.73285 0.183448,-4.15677 0.454386,-5.28936 1.490966,-6.23262 1.826284,-1.66187 6.390341,-3.01433 11.362609,-3.36707 l 2.645044,-0.18764 2.025251,-2.14827 c 1.443706,-1.53139 2.134091,-2.03942 2.404288,-1.76922 0.270198,0.2702 -0.217508,1.00595 -1.698453,2.56227 -2.052662,2.15713 -2.104575,2.1854 -4.343776,2.36522 -1.246458,0.1001 -2.742536,0.31958 -3.32462,0.48774 -0.582083,0.16816 -1.981065,0.48824 -3.108847,0.71128 -2.533568,0.50107 -4.834828,1.49532 -5.716834,2.46992 -1.076767,1.18982 -1.737931,7.96092 -0.99829,10.22367 0.33871,1.03619 1.179232,-0.76843 1.222655,-2.62507 0.02296,-0.98156 0.175693,-2.26091 0.339416,-2.84299 0.234614,-0.83412 0.266492,-0.68465 0.150473,0.70556 -0.647639,7.76036 -0.653215,7.36639 0.114095,8.06025 0.396511,0.35855 0.873166,0.55783 1.059234,0.44283 0.186067,-0.11499 0.525056,-1.59898 0.753308,-3.29775 0.228252,-1.69877 0.562507,-3.48554 0.74279,-3.97061 0.363193,-0.97721 0.391183,-1.28999 -0.416858,4.6581 -0.37451,2.7568 -0.354644,3.16597 0.194396,4.00391 0.45594,0.69586 0.827996,0.89194 1.462304,0.77069 0.467923,-0.0894 0.850769,-0.0259 0.850769,0.14122 0,0.16712 -0.483633,0.30386 -1.074741,0.30386 -0.82464,0 -1.214588,-0.24577 -1.675694,-1.05611 z"
         id="path834"
         inkscape:connector-curvature="0" />
      <path
         style="fill:#a6f331;stroke-width:0.35277778"
         d="m 148.18107,178.87231 c -0.7248,-0.87332 -1.08973,-5.98202 -0.57034,-7.9843 0.60278,-2.32378 0.60256,-2.32348 2.41766,-3.22999 0.84885,-0.42394 2.55182,-1.70699 3.78438,-2.85122 1.23255,-1.14424 2.67963,-2.17635 3.21572,-2.29359 1.75114,-0.38296 1.59928,-3.0371 -0.19959,-3.48859 -0.45341,-0.1138 -2.09601,0.26147 -3.84214,0.87778 -3.74026,1.32015 -4.83699,1.35681 -5.92554,0.19811 -1.17921,-1.25522 -0.59792,-2.38039 1.62022,-3.13619 2.2337,-0.76109 4.56393,-0.70978 6.44072,0.14183 2.13991,0.97101 4.43078,0.93336 5.14375,-0.0845 0.76006,-1.08515 0.46517,-1.29016 -4.73207,-3.28978 l -4.40049,-1.69307 -2.11981,0.74262 c -2.38551,0.8357 -3.14257,0.74901 -1.05956,-0.12133 2.58694,-1.0809 3.38035,-1.02521 7.37448,0.51756 2.06659,0.79824 3.96342,1.45134 4.21517,1.45134 0.25176,0 0.74168,0.31376 1.08873,0.69724 0.71628,0.79149 1.24225,0.64067 1.24225,-0.35622 0,-0.39395 -0.44129,-0.90387 -1.05834,-1.22296 -0.58208,-0.30101 -1.05833,-0.45518 -1.05833,-0.3426 0,0.11257 -1.07156,-0.34993 -2.38125,-1.02779 -3.81974,-1.977 -6.87176,-3.09052 -7.82335,-2.85434 -0.47079,0.11686 -2.77964,1.16753 -5.13077,2.33483 l -4.27479,2.12236 -0.80462,4.1171 c -0.44254,2.26441 -0.96896,4.8779 -1.16981,5.80777 -0.20085,0.92986 -0.26196,2.51736 -0.13579,3.52778 0.72885,5.83708 0.82775,7.80329 0.39933,7.93946 -0.32903,0.10458 -1.32926,-3.19197 -1.19675,-3.94423 0.0382,-0.21683 -0.0541,-1.68747 -0.20514,-3.26809 -0.17028,-1.78221 -0.13104,-3.59127 0.1033,-4.7625 1.37711,-6.88269 1.88715,-8.99362 2.26235,-9.36338 0.67396,-0.6642 8.9341,-4.68688 10.10478,-4.92101 1.09582,-0.21916 3.68863,0.65505 7.95945,2.68367 1.16417,0.55298 2.71198,1.25528 3.43959,1.56068 1.76223,0.73965 1.80982,2.02668 0.13511,3.65348 -1.01442,0.9854 -1.4299,1.14653 -2.95633,1.14653 -1.01598,0 -2.43416,-0.29863 -3.31387,-0.69781 -1.87549,-0.85102 -3.84188,-0.87347 -5.94443,-0.0679 -1.76676,0.67695 -2.16182,1.50858 -1.21409,2.55581 0.82485,0.91145 1.1995,0.88003 5.0997,-0.42762 3.89501,-1.30592 4.97326,-1.22185 5.84059,0.45538 0.72674,1.40537 0.25944,2.58209 -1.14403,2.8808 -0.55032,0.11713 -1.95307,1.09794 -3.11724,2.17958 -1.16416,1.08165 -2.68925,2.27003 -3.38908,2.64086 -2.2293,1.18126 -3.07425,5.14091 -2.07143,9.70725 0.3326,1.51449 0.002,2.27314 -0.6483,1.48918 z m 48.26576,-1.24224 c 0,-0.93133 0.14614,-1.84414 0.32475,-2.02847 0.17862,-0.18433 0.89647,-1.48014 1.59522,-2.87958 0.95452,-1.91167 1.31542,-3.13992 1.45123,-4.93889 0.0994,-1.31695 0.31847,-2.95007 0.48678,-3.62917 0.16832,-0.6791 0.40308,-2.2666 0.52169,-3.52778 0.11862,-1.26118 0.44117,-3.14099 0.71679,-4.17735 0.54084,-2.03365 0.40553,-2.97472 -0.40362,-2.80733 -0.95535,0.19763 -3.47456,6.0717 -3.06344,7.14305 0.13939,0.36326 -0.0137,0.44238 -0.57302,0.29612 -0.41979,-0.10978 -0.60172,-0.29943 -0.4043,-0.42144 0.36474,-0.22542 0.79599,-1.42889 2.09767,-5.85388 1.00649,-3.42149 1.18029,-4.50719 0.813,-5.07849 -0.17764,-0.27632 -0.57025,-0.39502 -0.89474,-0.2705 -0.61253,0.23505 -3.37357,5.8831 -3.37357,6.90106 0,0.32993 -0.14531,0.75069 -0.3229,0.93501 -0.1776,0.18433 -0.37604,0.71958 -0.44097,1.18945 -0.14474,1.04729 -0.86806,1.35769 -1.13725,0.48803 -0.10841,-0.35023 -0.34841,-1.98616 -0.53333,-3.63539 -0.65178,-5.81303 -1.09826,-7.71514 -1.86834,-7.95955 -1.52298,-0.48337 -1.70461,0.61303 -1.21802,7.35243 0.20629,2.85713 0.46216,4.31751 0.81895,4.6743 0.28541,0.28541 0.36182,0.51893 0.1698,0.51893 -0.19202,0 -0.63992,0.10274 -0.99533,0.22831 -0.4675,0.16517 -0.54549,0.11809 -0.28198,-0.17022 0.56627,-0.61956 -0.3651,-10.26431 -1.05812,-10.95733 -0.48594,-0.48594 -0.60351,-0.47809 -1.1582,0.0773 -0.54914,0.5498 -0.61736,1.44511 -0.61736,8.10129 0,4.11574 -0.12844,7.6816 -0.28541,7.92414 -0.44943,0.69442 -2.14957,0.51644 -3.45772,-0.36196 -3.36708,-2.26095 -5.539,-2.98307 -6.1242,-2.0362 -0.11417,0.18473 0.81852,1.36199 2.07266,2.61612 1.25413,1.25413 2.71039,2.9683 3.23613,3.80926 0.52574,0.84097 1.44898,2.10707 2.05166,2.81357 2.73697,3.2085 2.68327,3.10651 2.68327,5.09543 0,1.05067 -0.15875,1.91031 -0.35278,1.91031 -0.19403,0 -0.35278,-0.84185 -0.35278,-1.87078 0,-1.54635 -0.1968,-2.14284 -1.13481,-3.43959 -0.62415,-0.86284 -1.32619,-1.68884 -1.56008,-1.83557 -0.2339,-0.14672 -0.78429,-0.86109 -1.22309,-1.5875 -1.18835,-1.96722 -4.00688,-5.1572 -5.40026,-6.11196 -1.14047,-0.78147 -1.18687,-0.88409 -0.66192,-1.46415 1.17619,-1.29968 3.3892,-0.75621 7.11897,1.74828 1.31511,0.88308 1.71907,0.95673 2.50841,0.45736 0.44343,-0.28054 0.52917,-1.55676 0.52917,-7.87685 0,-8.36576 0.13646,-8.9482 2.00871,-8.57375 0.80792,0.16158 0.9899,0.0743 0.9899,-0.47498 0,-0.75985 1.0739,-1.22786 2.08272,-0.90768 0.73438,0.23309 1.09278,1.80118 1.81664,7.94828 0.21705,1.84326 0.50575,3.4682 0.64154,3.61098 0.1358,0.14278 0.45332,-0.49222 0.70561,-1.41111 0.52015,-1.89451 2.31618,-6.21097 3.08044,-7.40334 0.30116,-0.46987 0.86257,-0.79375 1.37585,-0.79375 1.08507,0 1.40021,1.03691 0.93899,3.08963 -0.31779,1.41438 -0.30139,1.46252 0.37494,1.10056 0.54581,-0.29211 0.83386,-0.25191 1.26188,0.17611 0.50432,0.50432 0.49993,0.78744 -0.0485,3.12125 -0.3317,1.41164 -0.74765,3.83661 -0.92434,5.38883 -0.17669,1.55223 -0.4054,3.06035 -0.50826,3.35139 -0.10285,0.29105 -0.25712,1.58503 -0.34282,2.87553 -0.12295,1.85155 -0.4606,2.95083 -1.6011,5.21267 -1.0494,2.08116 -1.4453,3.29863 -1.4453,4.44461 0,0.86807 -0.15875,1.5783 -0.35277,1.5783 -0.19403,0 -0.35278,-0.762 -0.35278,-1.69333 z M 20.263143,172.62594 c -2.050187,-0.39501 -2.337719,-1.02089 -2.263605,-4.92729 0.03515,-1.85256 0.181173,-3.76518 0.324501,-4.25025 0.143328,-0.48506 0.186944,0.9751 0.09692,3.24482 -0.153408,3.86792 -0.116101,4.17433 0.594787,4.88522 0.559613,0.55961 1.003755,0.6996 1.694075,0.53394 0.514587,-0.12349 1.273882,-0.28172 1.687321,-0.35162 1.119582,-0.18931 2.353647,-1.09758 3.602174,-2.65121 1.303112,-1.62155 1.507672,-3.68592 0.489798,-4.94294 l -0.624376,-0.77107 -0.963124,0.75759 c -1.125687,0.88547 -1.186325,1.2779 -0.345763,2.23773 0.587963,0.67139 0.587963,0.69424 0,0.47982 -0.908211,-0.3312 -1.583587,0.0433 -1.826968,1.01297 -0.118221,0.47103 -0.362572,0.85642 -0.543002,0.85642 -0.180431,0 -0.09803,-0.55052 0.18311,-1.22339 0.281141,-0.67287 0.511165,-1.94287 0.511165,-2.82222 0,-0.87936 0.120207,-1.59883 0.267126,-1.59883 0.146918,0 0.235454,0.75406 0.196745,1.67569 -0.05319,1.26651 -0.01074,1.42637 0.173847,0.65465 0.290243,-1.21343 1.888852,-2.51928 2.702054,-2.20723 0.965468,0.37049 1.673918,2.54831 1.285998,3.95324 -0.482611,1.74787 -2.26907,3.84499 -4.00914,4.70631 -2.414503,1.19516 -0.30937,0.93583 2.675629,-0.32961 3.567029,-1.51218 3.469248,-1.43659 4.716833,-3.64599 0.972319,-1.72191 1.886074,-5.53159 1.592943,-6.64139 -0.07158,-0.27098 4.195256,-4.48839 4.992213,-4.93439 0.300238,-0.16802 0.666443,-0.0728 0.926888,0.24102 0.35343,0.42586 0.28151,0.57746 -0.401542,0.84639 -0.457652,0.18018 -1.753669,1.26783 -2.880039,2.417 -1.92352,1.96246 -2.060593,2.21619 -2.256102,4.17616 -0.293804,2.94538 -2.239919,6.33114 -3.966668,6.90102 -0.684698,0.22597 -2.040765,0.78146 -3.013484,1.23443 -1.803764,0.83997 -3.161857,0.95668 -5.620317,0.48301 z M 192.4002,171.9114 c 0.28021,-1.63006 -0.28654,-3.02586 -1.8133,-4.46577 -1.34979,-1.27302 -1.1388,-1.61045 0.29955,-0.47904 1.66606,1.31052 2.55629,4.34023 1.66133,5.65404 -0.26297,0.38605 -0.30289,0.19425 -0.14758,-0.70923 z M 14.838057,170.15341 c -0.330525,-0.58085 -0.854162,-1.0571 -1.163638,-1.05833 -0.871952,-0.003 -1.730371,-1.17925 -1.730371,-2.37011 0,-0.7509 -0.197412,-1.12923 -0.651127,-1.24788 -0.780756,-0.20417 -1.076506,-2.05849 -0.914349,-5.73285 0.183448,-4.15677 0.454386,-5.28936 1.490966,-6.23262 1.826284,-1.66187 6.390341,-3.01433 11.362609,-3.36707 l 2.645044,-0.18764 2.025251,-2.14827 c 1.443706,-1.53139 2.134091,-2.03942 2.404288,-1.76922 0.270198,0.2702 -0.217508,1.00595 -1.698453,2.56227 -2.052662,2.15713 -2.104575,2.1854 -4.343776,2.36522 -1.246458,0.1001 -2.742536,0.31958 -3.32462,0.48774 -0.582083,0.16816 -1.981065,0.48824 -3.108847,0.71128 -2.533568,0.50107 -4.834828,1.49532 -5.716834,2.46992 -1.076767,1.18982 -1.737931,7.96092 -0.99829,10.22367 0.33871,1.03619 1.179232,-0.76843 1.222655,-2.62507 0.02296,-0.98156 0.175693,-2.26091 0.339416,-2.84299 0.234614,-0.83412 0.266492,-0.68465 0.150473,0.70556 -0.647639,7.76036 -0.653215,7.36639 0.114095,8.06025 0.396511,0.35855 0.873166,0.55783 1.059234,0.44283 0.186067,-0.11499 0.525056,-1.59898 0.753308,-3.29775 0.228252,-1.69877 0.562507,-3.48554 0.74279,-3.97061 0.363193,-0.97721 0.391183,-1.28999 -0.416858,4.6581 -0.37451,2.7568 -0.354644,3.16597 0.194396,4.00391 0.45594,0.69586 0.827996,0.89194 1.462304,0.77069 0.467923,-0.0894 0.850769,-0.0259 0.850769,0.14122 0,0.16712 -0.483633,0.30386 -1.074741,0.30386 -0.82464,0 -1.214588,-0.24577 -1.675694,-1.05611 z"
         id="path832"
         inkscape:connector-curvature="0" />
      <path
         style="fill:#a09c83;stroke-width:0.35277778"
         d="m 196.44683,177.63007 c 0,-0.93133 0.14614,-1.84414 0.32475,-2.02847 0.17862,-0.18433 0.89647,-1.48014 1.59522,-2.87958 0.95452,-1.91167 1.31542,-3.13992 1.45123,-4.93889 0.0994,-1.31695 0.31847,-2.95007 0.48678,-3.62917 0.16832,-0.6791 0.40308,-2.2666 0.52169,-3.52778 0.11862,-1.26118 0.44117,-3.14099 0.71679,-4.17735 0.54084,-2.03365 0.40553,-2.97472 -0.40362,-2.80733 -0.95535,0.19763 -3.47456,6.0717 -3.06344,7.14305 0.13939,0.36326 -0.0137,0.44238 -0.57302,0.29612 -0.41979,-0.10978 -0.60172,-0.29943 -0.4043,-0.42144 0.36474,-0.22542 0.79599,-1.42889 2.09767,-5.85388 1.00649,-3.42149 1.18029,-4.50719 0.813,-5.07849 -0.17764,-0.27632 -0.57025,-0.39502 -0.89474,-0.2705 -0.61253,0.23505 -3.37357,5.8831 -3.37357,6.90106 0,0.32993 -0.14531,0.75069 -0.3229,0.93501 -0.1776,0.18433 -0.37604,0.71958 -0.44097,1.18945 -0.14474,1.04729 -0.86806,1.35769 -1.13725,0.48803 -0.10841,-0.35023 -0.34841,-1.98616 -0.53333,-3.63539 -0.65178,-5.81303 -1.09826,-7.71514 -1.86834,-7.95955 -1.52298,-0.48337 -1.70461,0.61303 -1.21802,7.35243 0.20629,2.85713 0.46216,4.31751 0.81895,4.6743 0.28541,0.28541 0.36182,0.51893 0.1698,0.51893 -0.19202,0 -0.63992,0.10274 -0.99533,0.22831 -0.4675,0.16517 -0.54549,0.11809 -0.28198,-0.17022 0.56627,-0.61956 -0.3651,-10.26431 -1.05812,-10.95733 -0.48594,-0.48594 -0.60351,-0.47809 -1.1582,0.0773 -0.54914,0.5498 -0.61736,1.44511 -0.61736,8.10129 0,4.11574 -0.12844,7.6816 -0.28541,7.92414 -0.44943,0.69442 -2.14957,0.51644 -3.45772,-0.36196 -3.36708,-2.26095 -5.539,-2.98307 -6.1242,-2.0362 -0.11417,0.18473 0.81852,1.36199 2.07266,2.61612 1.25413,1.25413 2.71039,2.9683 3.23613,3.80926 0.52574,0.84097 1.44898,2.10707 2.05166,2.81357 2.73697,3.2085 2.68327,3.10651 2.68327,5.09543 0,1.05067 -0.15875,1.91031 -0.35278,1.91031 -0.19403,0 -0.35278,-0.84185 -0.35278,-1.87078 0,-1.54635 -0.1968,-2.14284 -1.13481,-3.43959 -0.62415,-0.86284 -1.32619,-1.68884 -1.56008,-1.83557 -0.2339,-0.14672 -0.78429,-0.86109 -1.22309,-1.5875 -1.18835,-1.96722 -4.00688,-5.1572 -5.40026,-6.11196 -1.14047,-0.78147 -1.18687,-0.88409 -0.66192,-1.46415 1.17619,-1.29968 3.3892,-0.75621 7.11897,1.74828 1.31511,0.88308 1.71907,0.95673 2.50841,0.45736 0.44343,-0.28054 0.52917,-1.55676 0.52917,-7.87685 0,-8.36576 0.13646,-8.9482 2.00871,-8.57375 0.80792,0.16158 0.9899,0.0743 0.9899,-0.47498 0,-0.75985 1.0739,-1.22786 2.08272,-0.90768 0.73438,0.23309 1.09278,1.80118 1.81664,7.94828 0.21705,1.84326 0.50575,3.4682 0.64154,3.61098 0.1358,0.14278 0.45332,-0.49222 0.70561,-1.41111 0.52015,-1.89451 2.31618,-6.21097 3.08044,-7.40334 0.30116,-0.46987 0.86257,-0.79375 1.37585,-0.79375 1.08507,0 1.40021,1.03691 0.93899,3.08963 -0.31779,1.41438 -0.30139,1.46252 0.37494,1.10056 0.54581,-0.29211 0.83386,-0.25191 1.26188,0.17611 0.50432,0.50432 0.49993,0.78744 -0.0485,3.12125 -0.3317,1.41164 -0.74765,3.83661 -0.92434,5.38883 -0.17669,1.55223 -0.4054,3.06035 -0.50826,3.35139 -0.10285,0.29105 -0.25712,1.58503 -0.34282,2.87553 -0.12295,1.85155 -0.4606,2.95083 -1.6011,5.21267 -1.0494,2.08116 -1.4453,3.29863 -1.4453,4.44461 0,0.86807 -0.15875,1.5783 -0.35277,1.5783 -0.19403,0 -0.35278,-0.762 -0.35278,-1.69333 z M 20.263143,172.62594 c -2.050187,-0.39501 -2.337719,-1.02089 -2.263605,-4.92729 0.03515,-1.85256 0.181173,-3.76518 0.324501,-4.25025 0.143328,-0.48506 0.186944,0.9751 0.09692,3.24482 -0.153408,3.86792 -0.116101,4.17433 0.594787,4.88522 0.559613,0.55961 1.003755,0.6996 1.694075,0.53394 0.514587,-0.12349 1.273882,-0.28172 1.687321,-0.35162 1.119582,-0.18931 2.353647,-1.09758 3.602174,-2.65121 1.303112,-1.62155 1.507672,-3.68592 0.489798,-4.94294 l -0.624376,-0.77107 -0.963124,0.75759 c -1.125687,0.88547 -1.186325,1.2779 -0.345763,2.23773 0.587963,0.67139 0.587963,0.69424 0,0.47982 -0.908211,-0.3312 -1.583587,0.0433 -1.826968,1.01297 -0.118221,0.47103 -0.362572,0.85642 -0.543002,0.85642 -0.180431,0 -0.09803,-0.55052 0.18311,-1.22339 0.281141,-0.67287 0.511165,-1.94287 0.511165,-2.82222 0,-0.87936 0.120207,-1.59883 0.267126,-1.59883 0.146918,0 0.235454,0.75406 0.196745,1.67569 -0.05319,1.26651 -0.01074,1.42637 0.173847,0.65465 0.290243,-1.21343 1.888852,-2.51928 2.702054,-2.20723 0.965468,0.37049 1.673918,2.54831 1.285998,3.95324 -0.482611,1.74787 -2.26907,3.84499 -4.00914,4.70631 -2.414503,1.19516 -0.30937,0.93583 2.675629,-0.32961 3.567029,-1.51218 3.469248,-1.43659 4.716833,-3.64599 0.972319,-1.72191 1.886074,-5.53159 1.592943,-6.64139 -0.07158,-0.27098 4.195256,-4.48839 4.992213,-4.93439 0.300238,-0.16802 0.666443,-0.0728 0.926888,0.24102 0.35343,0.42586 0.28151,0.57746 -0.401542,0.84639 -0.457652,0.18018 -1.753669,1.26783 -2.880039,2.417 -1.92352,1.96246 -2.060593,2.21619 -2.256102,4.17616 -0.293804,2.94538 -2.239919,6.33114 -3.966668,6.90102 -0.684698,0.22597 -2.040765,0.78146 -3.013484,1.23443 -1.803764,0.83997 -3.161857,0.95668 -5.620317,0.48301 z M 192.4002,171.9114 c 0.28021,-1.63006 -0.28654,-3.02586 -1.8133,-4.46577 -1.34979,-1.27302 -1.1388,-1.61045 0.29955,-0.47904 1.66606,1.31052 2.55629,4.34023 1.66133,5.65404 -0.26297,0.38605 -0.30289,0.19425 -0.14758,-0.70923 z M 14.838057,170.15341 c -0.330525,-0.58085 -0.854162,-1.0571 -1.163638,-1.05833 -0.871952,-0.003 -1.730371,-1.17925 -1.730371,-2.37011 0,-0.7509 -0.197412,-1.12923 -0.651127,-1.24788 -0.780756,-0.20417 -1.076506,-2.05849 -0.914349,-5.73285 0.183448,-4.15677 0.454386,-5.28936 1.490966,-6.23262 1.826284,-1.66187 6.390341,-3.01433 11.362609,-3.36707 l 2.645044,-0.18764 2.025251,-2.14827 c 1.443706,-1.53139 2.134091,-2.03942 2.404288,-1.76922 0.270198,0.2702 -0.217508,1.00595 -1.698453,2.56227 -2.052662,2.15713 -2.104575,2.1854 -4.343776,2.36522 -1.246458,0.1001 -2.742536,0.31958 -3.32462,0.48774 -0.582083,0.16816 -1.981065,0.48824 -3.108847,0.71128 -2.533568,0.50107 -4.834828,1.49532 -5.716834,2.46992 -1.076767,1.18982 -1.737931,7.96092 -0.99829,10.22367 0.33871,1.03619 1.179232,-0.76843 1.222655,-2.62507 0.02296,-0.98156 0.175693,-2.26091 0.339416,-2.84299 0.234614,-0.83412 0.266492,-0.68465 0.150473,0.70556 -0.647639,7.76036 -0.653215,7.36639 0.114095,8.06025 0.396511,0.35855 0.873166,0.55783 1.059234,0.44283 0.186067,-0.11499 0.525056,-1.59898 0.753308,-3.29775 0.228252,-1.69877 0.562507,-3.48554 0.74279,-3.97061 0.363193,-0.97721 0.391183,-1.28999 -0.416858,4.6581 -0.37451,2.7568 -0.354644,3.16597 0.194396,4.00391 0.45594,0.69586 0.827996,0.89194 1.462304,0.77069 0.467923,-0.0894 0.850769,-0.0259 0.850769,0.14122 0,0.16712 -0.483633,0.30386 -1.074741,0.30386 -0.82464,0 -1.214588,-0.24577 -1.675694,-1.05611 z"
         id="path830"
         inkscape:connector-curvature="0" />
      <path
         style="fill:#596795;stroke-width:0.35277778"
         d="m 196.44683,177.63007 c 0,-0.93133 0.14614,-1.84414 0.32475,-2.02847 0.17862,-0.18433 0.89647,-1.48014 1.59522,-2.87958 0.95452,-1.91167 1.31542,-3.13992 1.45123,-4.93889 0.0994,-1.31695 0.31847,-2.95007 0.48678,-3.62917 0.16832,-0.6791 0.40308,-2.2666 0.52169,-3.52778 0.11862,-1.26118 0.44117,-3.14099 0.71679,-4.17735 0.54084,-2.03365 0.40553,-2.97472 -0.40362,-2.80733 -0.95535,0.19763 -3.47456,6.0717 -3.06344,7.14305 0.13939,0.36326 -0.0137,0.44238 -0.57302,0.29612 -0.41979,-0.10978 -0.60172,-0.29943 -0.4043,-0.42144 0.36474,-0.22542 0.79599,-1.42889 2.09767,-5.85388 1.00649,-3.42149 1.18029,-4.50719 0.813,-5.07849 -0.17764,-0.27632 -0.57025,-0.39502 -0.89474,-0.2705 -0.61253,0.23505 -3.37357,5.8831 -3.37357,6.90106 0,0.32993 -0.14531,0.75069 -0.3229,0.93501 -0.1776,0.18433 -0.37604,0.71958 -0.44097,1.18945 -0.14474,1.04729 -0.86806,1.35769 -1.13725,0.48803 -0.10841,-0.35023 -0.34841,-1.98616 -0.53333,-3.63539 -0.65178,-5.81303 -1.09826,-7.71514 -1.86834,-7.95955 -1.52298,-0.48337 -1.70461,0.61303 -1.21802,7.35243 0.20629,2.85713 0.46216,4.31751 0.81895,4.6743 0.28541,0.28541 0.36182,0.51893 0.1698,0.51893 -0.19202,0 -0.63992,0.10274 -0.99533,0.22831 -0.4675,0.16517 -0.54549,0.11809 -0.28198,-0.17022 0.56627,-0.61956 -0.3651,-10.26431 -1.05812,-10.95733 -0.48594,-0.48594 -0.60351,-0.47809 -1.1582,0.0773 -0.54914,0.5498 -0.61736,1.44511 -0.61736,8.10129 0,4.11574 -0.12844,7.6816 -0.28541,7.92414 -0.44943,0.69442 -2.14957,0.51644 -3.45772,-0.36196 -3.36708,-2.26095 -5.539,-2.98307 -6.1242,-2.0362 -0.11417,0.18473 0.81852,1.36199 2.07266,2.61612 1.25413,1.25413 2.71039,2.9683 3.23613,3.80926 0.52574,0.84097 1.44898,2.10707 2.05166,2.81357 2.73697,3.2085 2.68327,3.10651 2.68327,5.09543 0,1.05067 -0.15875,1.91031 -0.35278,1.91031 -0.19403,0 -0.35278,-0.84185 -0.35278,-1.87078 0,-1.54635 -0.1968,-2.14284 -1.13481,-3.43959 -0.62415,-0.86284 -1.32619,-1.68884 -1.56008,-1.83557 -0.2339,-0.14672 -0.78429,-0.86109 -1.22309,-1.5875 -1.18835,-1.96722 -4.00688,-5.1572 -5.40026,-6.11196 -1.14047,-0.78147 -1.18687,-0.88409 -0.66192,-1.46415 1.17619,-1.29968 3.3892,-0.75621 7.11897,1.74828 1.31511,0.88308 1.71907,0.95673 2.50841,0.45736 0.44343,-0.28054 0.52917,-1.55676 0.52917,-7.87685 0,-8.36576 0.13646,-8.9482 2.00871,-8.57375 0.80792,0.16158 0.9899,0.0743 0.9899,-0.47498 0,-0.75985 1.0739,-1.22786 2.08272,-0.90768 0.73438,0.23309 1.09278,1.80118 1.81664,7.94828 0.21705,1.84326 0.50575,3.4682 0.64154,3.61098 0.1358,0.14278 0.45332,-0.49222 0.70561,-1.41111 0.52015,-1.89451 2.31618,-6.21097 3.08044,-7.40334 0.30116,-0.46987 0.86257,-0.79375 1.37585,-0.79375 1.08507,0 1.40021,1.03691 0.93899,3.08963 -0.31779,1.41438 -0.30139,1.46252 0.37494,1.10056 0.54581,-0.29211 0.83386,-0.25191 1.26188,0.17611 0.50432,0.50432 0.49993,0.78744 -0.0485,3.12125 -0.3317,1.41164 -0.74765,3.83661 -0.92434,5.38883 -0.17669,1.55223 -0.4054,3.06035 -0.50826,3.35139 -0.10285,0.29105 -0.25712,1.58503 -0.34282,2.87553 -0.12295,1.85155 -0.4606,2.95083 -1.6011,5.21267 -1.0494,2.08116 -1.4453,3.29863 -1.4453,4.44461 0,0.86807 -0.15875,1.5783 -0.35277,1.5783 -0.19403,0 -0.35278,-0.762 -0.35278,-1.69333 z m -4.04663,-5.71867 c 0.28021,-1.63006 -0.28654,-3.02586 -1.8133,-4.46577 -1.34979,-1.27302 -1.1388,-1.61045 0.29955,-0.47904 1.66606,1.31052 2.55629,4.34023 1.66133,5.65404 -0.26297,0.38605 -0.30289,0.19425 -0.14758,-0.70923 z"
         id="path828"
         inkscape:connector-curvature="0" />
    </g>
  </g>
</svg>
