<?xml version="1.0" encoding="UTF-8" standalone="no"?>
<!-- Created with Inkscape (http://www.inkscape.org/) -->

<svg
   xmlns:dc="http://purl.org/dc/elements/1.1/"
   xmlns:cc="http://creativecommons.org/ns#"
   xmlns:rdf="http://www.w3.org/1999/02/22-rdf-syntax-ns#"
   xmlns:svg="http://www.w3.org/2000/svg"
   xmlns="http://www.w3.org/2000/svg"
   xmlns:xlink="http://www.w3.org/1999/xlink"
   xmlns:sodipodi="http://sodipodi.sourceforge.net/DTD/sodipodi-0.dtd"
   xmlns:inkscape="http://www.inkscape.org/namespaces/inkscape"
   width="25.545631mm"
   height="15.727878mm"
   viewBox="0 0 25.545631 15.727878"
   version="1.1"
   id="svg8"
   inkscape:version="0.92.3 (2405546, 2018-03-11)"
   sodipodi:docname="scissors.svg">
  <defs
     id="defs2" />
  <sodipodi:namedview
     id="base"
     pagecolor="#ffffff"
     bordercolor="#666666"
     borderopacity="1.0"
     inkscape:pageopacity="0.0"
     inkscape:pageshadow="2"
     inkscape:zoom="0.35"
     inkscape:cx="-454.5"
     inkscape:cy="4.2296846"
     inkscape:document-units="mm"
     inkscape:current-layer="layer1"
     showgrid="false"
     fit-margin-top="0"
     fit-margin-left="0"
     fit-margin-right="0"
     fit-margin-bottom="0"
     inkscape:window-width="1366"
     inkscape:window-height="745"
     inkscape:window-x="-8"
     inkscape:window-y="-8"
     inkscape:window-maximized="1" />
  <metadata
     id="metadata5">
    <rdf:RDF>
      <cc:Work
         rdf:about="">
        <dc:format>image/svg+xml</dc:format>
        <dc:type
           rdf:resource="http://purl.org/dc/dcmitype/StillImage" />
        <dc:title></dc:title>
      </cc:Work>
    </rdf:RDF>
  </metadata>
  <g
     inkscape:label="Layer 1"
     inkscape:groupmode="layer"
     id="layer1"
     transform="translate(-67.336458,-134.22456)">
    <image
       sodipodi:absref="E:\strony\RPSLS\img\scissors — kopia.png"
       y="123.90581"
       x="61.251041"
       id="image823"
       xlink:href="file:///E:/strony/RPSLS/img/scissors%20%E2%80%94%20kopia.png"
       preserveAspectRatio="none"
       height="36.247917"
       width="36.247917" />
    <path
       style="fill:#aeb7b4;stroke-width:0.26458335"
       d="m 77.589062,149.6832 c -0.541757,-0.29358 -0.727604,-0.59487 -0.727604,-1.17959 0,-0.65795 -0.105596,-0.7853 -0.651152,-0.7853 -0.798379,0 -1.730098,-0.94658 -1.730098,-1.75769 0,-0.69283 -0.363828,-0.78202 -4.060599,-0.99545 -2.404678,-0.13883 -3.083151,-0.40634 -3.083151,-1.21561 0,-0.7993 0.585163,-1.01144 3.309512,-1.1998 2.54301,-0.17583 6.581312,-0.92991 6.949004,-1.29761 0.219902,-0.2199 -0.385436,-0.62749 -1.262683,-0.85019 -0.829366,-0.21055 -5.785015,-2.60738 -6.438561,-3.11405 -0.26699,-0.20699 -0.548373,-0.84556 -0.625294,-1.41906 -0.127472,-0.95037 -0.0796,-1.05783 0.54055,-1.21348 0.606213,-0.15215 2.443604,0.35907 3.216013,0.89479 0.307066,0.21298 2.184851,0.84284 4.609591,1.54619 l 1.699173,0.49289 0.772665,-0.79043 c 1.139986,-1.16618 3.053086,-2.57425 3.497569,-2.57425 0.673393,0 3.677071,1.49769 4.449738,2.21872 0.651968,0.60839 0.96265,0.6917 2.579688,0.6917 1.049245,0 1.838452,0.11358 1.838452,0.26458 0,0.1508 -0.784424,0.26458 -1.824101,0.26458 -1.67685,0 -1.895385,-0.0666 -2.707106,-0.82484 -1.092072,-1.02015 -4.208869,-2.4883 -4.622102,-2.17722 -0.163606,0.12317 -0.641589,0.4552 -1.062183,0.73786 -1.293379,0.8692 -2.773674,2.55928 -2.647442,3.02262 0.06476,0.23772 0.271819,1.06639 0.46013,1.84151 0.431543,1.7763 1.034467,2.17441 1.806552,1.19286 0.726254,-0.92328 0.938524,-1.83773 0.599376,-2.58208 -0.251341,-0.55164 -0.208064,-0.60425 0.513928,-0.62478 0.433609,-0.0123 0.958721,-0.16378 1.166914,-0.33657 0.48412,-0.40178 0.483635,-0.0364 -0.0015,1.12471 -0.767873,1.83778 0.33135,3.89849 2.086586,3.91172 0.482212,0.004 0.684455,0.0992 0.529167,0.25011 -0.377255,0.36656 -1.61108,0.0372 -2.319205,-0.61904 -0.72891,-0.67552 -1.09717,-2.44406 -0.717094,-3.44373 0.2233,-0.58733 0.187487,-0.67938 -0.264321,-0.67938 -0.429989,0 -0.522618,0.18065 -0.522618,1.01921 0,1.14908 -0.933433,2.76047 -1.682637,2.90476 -0.780294,0.15027 -1.414886,-0.67883 -1.602587,-2.09379 -0.302814,-2.28272 -0.431742,-2.44018 -2.439376,-2.9793 -2.205762,-0.59233 -2.98291,-0.86327 -4.830791,-1.68418 -0.784996,-0.34873 -1.737496,-0.59804 -2.116667,-0.55402 -0.57848,0.0671 -0.680774,0.20158 -0.63578,0.83545 0.02949,0.41549 0.267616,0.92153 0.529166,1.12454 0.596893,0.4633 5.798948,3.01483 6.146622,3.01483 0.623123,0 1.604966,0.65379 1.604966,1.06871 0,0.79187 -2.415323,1.36945 -7.408333,1.77157 -2.445792,0.19698 -2.513542,0.22014 -2.513542,0.8594 0,0.55738 0.160443,0.68672 1.058333,0.85319 0.582084,0.10791 2.940201,0.21213 5.240262,0.23159 3.253731,0.0275 4.587976,-0.0699 6.01135,-0.43911 1.571952,-0.40771 1.92363,-0.42407 2.498801,-0.11625 0.847972,0.45382 0.847751,0.8885 -7.67e-4,1.5066 l -0.670144,0.48817 0.861964,-0.003 c 1.074352,-0.004 1.28076,0.64969 0.463361,1.46709 -0.674115,0.67412 -0.459369,0.89989 1.091868,1.14795 1.403954,0.2245 2.087752,-0.10946 3.979793,-1.94368 1.603936,-1.55492 1.691473,-1.60048 3.075231,-1.60048 0.88216,0 1.362061,0.10071 1.260782,0.26458 -0.08994,0.14552 -0.701114,0.26459 -1.358173,0.26459 -1.085159,0 -1.332963,0.13192 -2.703719,1.4394 -0.829984,0.79167 -1.862942,1.57431 -2.295461,1.7392 -0.855406,0.3261 -2.947033,0.12849 -3.505401,-0.33117 -0.244774,-0.20151 -0.681795,-0.0942 -1.5875,0.38971 -1.660036,0.88699 -2.912645,1.07665 -3.829434,0.57983 z m 4.263643,-1.21611 c 2.051445,-1.37564 2.405333,-2.29239 0.738252,-1.91243 -0.459089,0.10463 -1.013301,0.21413 -1.231582,0.24333 -0.218282,0.0292 -0.575469,0.12101 -0.79375,0.20401 -0.218282,0.083 -1.081485,0.34099 -1.91823,0.57329 -1.732025,0.48088 -2.044786,1.17478 -0.818985,1.81705 0.937351,0.49112 2.420701,0.15008 4.024295,-0.92525 z m -2.061485,-1.69751 c 1.107286,-0.37628 2.30479,-0.94183 2.661121,-1.25677 0.356331,-0.31494 0.595379,-0.54471 0.531219,-0.51059 -0.06416,0.0341 -0.256893,-0.12976 -0.428295,-0.36416 -0.286472,-0.39178 -0.450213,-0.39144 -2.02744,0.004 -0.94369,0.23667 -2.40063,0.43031 -3.237645,0.43031 -2.406037,0 -3.102205,0.62546 -2.005915,1.80219 0.726286,0.77958 1.99037,0.7501 4.506955,-0.10509 z"
       id="path826"
       inkscape:connector-curvature="0" />
  </g>
</svg>
