<?xml version="1.0" encoding="UTF-8" standalone="no"?>
<!-- Created with Inkscape (http://www.inkscape.org/) -->

<svg
   xmlns:dc="http://purl.org/dc/elements/1.1/"
   xmlns:cc="http://creativecommons.org/ns#"
   xmlns:rdf="http://www.w3.org/1999/02/22-rdf-syntax-ns#"
   xmlns:svg="http://www.w3.org/2000/svg"
   xmlns="http://www.w3.org/2000/svg"
   xmlns:xlink="http://www.w3.org/1999/xlink"
   xmlns:sodipodi="http://sodipodi.sourceforge.net/DTD/sodipodi-0.dtd"
   xmlns:inkscape="http://www.inkscape.org/namespaces/inkscape"
   width="19.595274mm"
   height="24.294086mm"
   viewBox="0 0 19.595274 24.294086"
   version="1.1"
   id="svg8"
   inkscape:version="0.92.3 (2405546, 2018-03-11)"
   sodipodi:docname="spock.svg">
  <defs
     id="defs2" />
  <sodipodi:namedview
     id="base"
     pagecolor="#ffffff"
     bordercolor="#666666"
     borderopacity="1.0"
     inkscape:pageopacity="0.0"
     inkscape:pageshadow="2"
     inkscape:zoom="0.35"
     inkscape:cx="-455.43852"
     inkscape:cy="3.9287685"
     inkscape:document-units="mm"
     inkscape:current-layer="layer1"
     showgrid="false"
     fit-margin-top="0"
     fit-margin-left="0"
     fit-margin-right="0"
     fit-margin-bottom="0"
     inkscape:window-width="1366"
     inkscape:window-height="745"
     inkscape:window-x="-8"
     inkscape:window-y="-8"
     inkscape:window-maximized="1" />
  <metadata
     id="metadata5">
    <rdf:RDF>
      <cc:Work
         rdf:about="">
        <dc:format>image/svg+xml</dc:format>
        <dc:type
           rdf:resource="http://purl.org/dc/dcmitype/StillImage" />
        <dc:title></dc:title>
      </cc:Work>
    </rdf:RDF>
  </metadata>
  <g
     inkscape:label="Layer 1"
     inkscape:groupmode="layer"
     id="layer1"
     transform="translate(-67.584775,-125.57873)">
    <image
       sodipodi:absref="E:\strony\RPSLS\img\spock — kopia.png"
       y="118.38735"
       x="61.024254"
       id="image823"
       xlink:href="file:///E:/strony/RPSLS/img/spock%20%E2%80%94%20kopia.png"
       preserveAspectRatio="none"
       height="35.189583"
       width="35.189583" />
    <path
       style="fill:#596795;stroke-width:0.26458332"
       d="m 82.720087,148.60277 c 0,-0.6985 0.109605,-1.38311 0.243566,-1.52136 0.133961,-0.13824 0.672349,-1.1101 1.196417,-2.15969 0.715888,-1.43375 0.986565,-2.35493 1.088419,-3.70416 0.07456,-0.98771 0.238852,-2.21255 0.365088,-2.72188 0.126236,-0.50932 0.302307,-1.69994 0.391268,-2.64583 0.08896,-0.94589 0.330876,-2.35574 0.537587,-3.13301 0.405629,-1.52524 0.304153,-2.23104 -0.302718,-2.1055 -0.716508,0.14822 -2.605915,4.55377 -2.297578,5.35728 0.104547,0.27245 -0.01028,0.33179 -0.429766,0.22209 -0.314838,-0.0823 -0.451287,-0.22456 -0.303221,-0.31607 0.273556,-0.16907 0.596993,-1.07167 1.573252,-4.39042 0.754864,-2.56611 0.885219,-3.38039 0.609753,-3.80886 -0.133236,-0.20725 -0.427694,-0.29627 -0.671061,-0.20288 -0.459397,0.17629 -2.530173,4.41233 -2.530173,5.1758 0,0.24745 -0.10898,0.56301 -0.242179,0.70126 -0.133199,0.13824 -0.282027,0.53968 -0.330729,0.89209 -0.108552,0.78546 -0.65104,1.01826 -0.852935,0.36601 -0.08131,-0.26267 -0.261304,-1.48961 -0.399994,-2.72654 -0.488836,-4.35977 -0.823697,-5.78635 -1.401259,-5.96966 -1.142231,-0.36253 -1.278456,0.45978 -0.91351,5.51432 0.154717,2.14285 0.346612,3.23813 0.614211,3.50573 0.214056,0.21406 0.271364,0.38919 0.127351,0.38919 -0.144014,0 -0.47994,0.0771 -0.746504,0.17124 -0.350625,0.12387 -0.40911,0.0886 -0.211478,-0.12767 0.424702,-0.46467 -0.273826,-7.69823 -0.793592,-8.21799 -0.364453,-0.36446 -0.452636,-0.35857 -0.868652,0.058 -0.41185,0.41236 -0.463021,1.08384 -0.463021,6.07597 0,3.08681 -0.09632,5.76121 -0.214053,5.94311 -0.337077,0.52081 -1.612183,0.38733 -2.593296,-0.27147 -2.525308,-1.69571 -4.154246,-2.23731 -4.593149,-1.52715 -0.08563,0.13855 0.613896,1.02149 1.554496,1.96209 0.940599,0.9406 2.032793,2.22622 2.427098,2.85695 0.394305,0.63072 1.08674,1.5803 1.538744,2.11017 2.052731,2.40638 2.012452,2.32988 2.012452,3.82157 0,0.788 -0.119063,1.43273 -0.264584,1.43273 -0.145521,0 -0.264583,-0.63139 -0.264583,-1.40308 0,-1.15976 -0.1476,-1.60713 -0.851111,-2.57969 -0.468111,-0.64713 -0.994637,-1.26664 -1.170058,-1.37668 -0.17542,-0.11004 -0.588212,-0.64582 -0.917315,-1.19062 -0.891266,-1.47542 -3.005164,-3.86791 -4.050194,-4.58397 -0.855357,-0.5861 -0.890154,-0.66308 -0.496445,-1.09812 0.882147,-0.97476 2.541902,-0.56716 5.339232,1.31121 0.986334,0.66231 1.289298,0.71755 1.881308,0.34302 0.332572,-0.2104 0.396875,-1.16757 0.396875,-5.90764 0,-6.27432 0.102343,-6.71115 1.506534,-6.43031 0.605941,0.12119 0.742424,0.0557 0.742424,-0.35623 0,-0.56989 0.805422,-0.9209 1.562037,-0.68076 0.55079,0.17481 0.819589,1.35088 1.362481,5.96121 0.162791,1.38244 0.379312,2.60115 0.481158,2.70823 0.101846,0.10709 0.339988,-0.36916 0.529204,-1.05833 0.390115,-1.42088 1.737135,-4.65823 2.310332,-5.55251 0.225871,-0.35239 0.646931,-0.59531 1.031888,-0.59531 0.813805,0 1.050155,0.77768 0.704243,2.31722 -0.238344,1.06079 -0.226046,1.09689 0.281199,0.82542 0.409359,-0.21908 0.625397,-0.18893 0.946415,0.13209 0.37824,0.37824 0.374943,0.59058 -0.03634,2.34093 -0.248774,1.05873 -0.560738,2.87746 -0.693255,4.04163 -0.132516,1.16417 -0.304054,2.29526 -0.381194,2.51354 -0.07714,0.21828 -0.192843,1.18878 -0.257115,2.15665 -0.09221,1.38866 -0.345453,2.21312 -1.200829,3.9095 -0.787048,1.56087 -1.08397,2.47397 -1.08397,3.33346 0,0.65105 -0.119063,1.18373 -0.264584,1.18373 -0.14552,0 -0.264583,-0.5715 -0.264583,-1.27 z m -3.034971,-4.28901 c 0.210157,-1.22254 -0.21491,-2.26939 -1.359973,-3.34932 -1.012346,-0.95477 -0.854101,-1.20784 0.224659,-0.35929 1.249547,0.9829 1.917215,3.25518 1.246001,4.24053 -0.197234,0.28954 -0.227169,0.14569 -0.110687,-0.53192 z"
       id="path826"
       inkscape:connector-curvature="0" />
  </g>
</svg>
